<svg xmlns="http://www.w3.org/2000/svg" xmlns:xlink="http://www.w3.org/1999/xlink" width="100" zoomAndPan="magnify" viewBox="0 0 75 74.999997" height="100" preserveAspectRatio="xMidYMid meet" version="1.0"><defs><g/><clipPath id="81c5ed2b76"><path d="M 25 0.386719 L 49 0.386719 L 49 50 L 25 50 Z M 25 0.386719 " clip-rule="nonzero"/></clipPath><clipPath id="e73e83e011"><path d="M 2.472656 52 L 27 52 L 27 69 L 2.472656 69 Z M 2.472656 52 " clip-rule="nonzero"/></clipPath><clipPath id="68c3edb2c7"><path d="M 52 61 L 72.222656 61 L 72.222656 74.636719 L 52 74.636719 Z M 52 61 " clip-rule="nonzero"/></clipPath></defs><path fill="#000000" d="M 59.617188 39.679688 L 49.394531 32.460938 L 49.394531 31.390625 L 59.617188 38.609375 Z M 59.617188 42.179688 L 49.394531 34.964844 L 49.394531 33.894531 L 59.617188 41.109375 Z M 59.617188 44.683594 L 49.394531 37.464844 L 49.394531 36.398438 L 59.617188 43.613281 Z M 59.617188 47.183594 L 49.394531 39.96875 L 49.394531 38.898438 L 59.617188 46.113281 Z M 59.617188 49.6875 L 49.394531 42.46875 L 49.394531 41.402344 L 59.617188 48.617188 Z M 59.617188 52.1875 L 49.394531 44.972656 L 49.394531 43.902344 L 59.617188 51.117188 Z M 59.617188 54.691406 L 49.394531 47.472656 L 49.394531 46.402344 L 59.617188 53.621094 Z M 49.394531 29.152344 L 47.1875 30.425781 L 47.1875 50.066406 L 48.191406 50.191406 L 48.695312 50.257812 L 49.0625 50.609375 L 51.3125 52.761719 L 56.898438 56.707031 L 58.59375 56.46875 L 49.394531 49.976562 L 49.394531 48.90625 L 59.617188 56.121094 L 59.617188 56.324219 L 59.902344 56.285156 L 60.769531 56.164062 L 60.886719 56.3125 L 60.886719 37.269531 Z M 45.117188 31.617188 L 45.117188 39.761719 L 44.550781 39.761719 L 44.550781 31.945312 L 42.578125 33.082031 L 42.578125 45.8125 L 42.183594 45.8125 L 42.183594 33.308594 L 40.894531 34.050781 L 40.894531 47.335938 L 45.019531 47.335938 L 45.019531 49.792969 L 46.359375 49.960938 L 46.359375 30.902344 L 45.117188 31.617188 " fill-opacity="1" fill-rule="nonzero"/><path fill="#e07b2a" d="M 39.765625 62.890625 L 39.875 62.988281 L 39.875 63.871094 L 39.765625 63.773438 L 39.355469 63.414062 L 39.355469 62.527344 L 39.765625 62.890625 " fill-opacity="1" fill-rule="nonzero"/><g clip-path="url(#81c5ed2b76)"><path fill="#e07b2a" d="M 47.679688 17.863281 L 45.199219 15.667969 L 45.199219 10.769531 L 47.679688 12.964844 Z M 47.679688 23.644531 L 45.199219 21.449219 L 45.199219 16.550781 L 47.679688 18.75 Z M 44.757812 15.273438 L 43.144531 13.847656 L 42.277344 13.082031 L 42.277344 8.183594 L 43.144531 8.949219 L 44.757812 10.378906 Z M 44.757812 21.054688 L 43.144531 19.632812 L 42.277344 18.863281 L 42.277344 13.964844 L 43.144531 14.734375 L 44.757812 16.15625 Z M 44.757812 26.835938 L 43.144531 25.414062 L 42.277344 24.644531 L 42.277344 19.746094 L 43.144531 20.515625 L 44.757812 21.941406 Z M 41.832031 12.6875 L 41.457031 12.351562 L 39.765625 10.855469 L 39.355469 10.492188 L 39.355469 5.597656 L 39.765625 5.960938 L 41.457031 7.453125 L 41.832031 7.789062 Z M 41.832031 18.46875 L 41.457031 18.132812 L 39.765625 16.636719 L 39.355469 16.273438 L 39.355469 11.378906 L 39.765625 11.738281 L 41.457031 13.234375 L 41.832031 13.570312 Z M 41.832031 24.25 L 41.457031 23.914062 L 39.765625 22.417969 L 39.355469 22.058594 L 39.355469 17.160156 L 39.765625 17.523438 L 41.457031 19.019531 L 41.832031 19.351562 Z M 41.832031 30.03125 L 41.457031 29.699219 L 39.765625 28.203125 L 39.355469 27.839844 L 39.355469 22.941406 L 39.765625 23.304688 L 41.457031 24.800781 L 41.832031 25.132812 Z M 38.90625 10.097656 L 38.074219 9.359375 L 36.597656 8.054688 L 36.429688 7.90625 L 36.429688 3.007812 L 36.597656 3.15625 L 38.074219 4.460938 L 38.90625 5.203125 Z M 38.90625 15.878906 L 38.074219 15.140625 L 36.597656 13.835938 L 36.429688 13.6875 L 36.429688 8.789062 L 36.597656 8.9375 L 38.074219 10.242188 L 38.90625 10.984375 Z M 38.90625 21.664062 L 38.074219 20.921875 L 36.597656 19.617188 L 36.429688 19.46875 L 36.429688 14.570312 L 36.597656 14.71875 L 38.074219 16.027344 L 38.90625 16.765625 Z M 38.90625 27.445312 L 38.074219 26.703125 L 36.597656 25.398438 L 36.429688 25.25 L 36.429688 20.351562 L 36.597656 20.5 L 38.074219 21.808594 L 38.90625 22.546875 Z M 38.90625 33.226562 L 38.074219 32.484375 L 36.597656 31.179688 L 36.429688 31.03125 L 36.429688 26.132812 L 36.597656 26.28125 L 38.074219 27.589844 L 38.90625 28.328125 Z M 38.90625 39.007812 L 38.074219 38.265625 L 36.597656 36.960938 L 36.429688 36.8125 L 36.429688 31.914062 L 36.597656 32.0625 L 38.074219 33.367188 L 38.90625 34.109375 Z M 38.90625 44.789062 L 38.074219 44.046875 L 36.597656 42.742188 L 36.429688 42.59375 L 36.429688 37.695312 L 36.597656 37.84375 L 38.074219 39.152344 L 38.90625 39.890625 Z M 47.730469 11.441406 L 44.730469 8.785156 L 43.042969 7.289062 L 37.96875 2.800781 L 36.492188 1.496094 L 35.269531 0.414062 L 25.355469 7.578125 L 25.355469 18.632812 L 32.183594 21.410156 L 32.816406 21.667969 L 32.816406 48.699219 L 37.5 49.324219 L 36.597656 48.523438 L 36.429688 48.375 L 36.429688 43.480469 L 36.597656 43.625 L 38.074219 44.933594 L 38.90625 45.671875 L 38.90625 47.335938 L 39.355469 47.335938 L 39.355469 46.066406 L 39.355469 46.070312 L 39.355469 40.285156 L 39.355469 40.289062 L 39.355469 28.722656 L 39.765625 29.085938 L 41.457031 30.578125 L 41.832031 30.914062 L 41.832031 31.738281 L 42.277344 31.480469 L 42.277344 31.308594 L 42.394531 31.414062 L 43 31.066406 L 42.277344 30.425781 L 42.277344 25.527344 L 43.144531 26.296875 L 44.757812 27.722656 L 44.757812 30.050781 L 45.199219 29.792969 L 45.199219 28.117188 L 46.347656 29.132812 L 46.417969 29.09375 L 46.953125 28.785156 L 45.199219 27.230469 L 45.199219 22.335938 L 47.679688 24.53125 L 47.679688 28.367188 L 48.464844 27.914062 L 48.464844 12.089844 L 47.730469 11.441406 " fill-opacity="1" fill-rule="nonzero"/></g><path fill="#000000" d="M 14.097656 26.066406 L 22.679688 21.273438 L 22.679688 23.222656 L 23.636719 22.542969 L 31.261719 25.644531 L 31.261719 22.890625 L 22.882812 19.484375 L 14.097656 26.066406 " fill-opacity="1" fill-rule="nonzero"/><path fill="#000000" d="M 14.097656 30.652344 L 22.679688 25.855469 L 22.679688 27.808594 L 23.636719 27.128906 L 31.261719 30.226562 L 31.261719 27.472656 L 22.882812 24.066406 L 14.097656 30.652344 " fill-opacity="1" fill-rule="nonzero"/><path fill="#000000" d="M 14.097656 35.234375 L 22.679688 30.4375 L 22.679688 32.390625 L 23.636719 31.710938 L 31.261719 34.808594 L 31.261719 32.058594 L 22.882812 28.652344 L 14.097656 35.234375 " fill-opacity="1" fill-rule="nonzero"/><path fill="#000000" d="M 14.097656 39.816406 L 22.679688 35.023438 L 22.679688 36.972656 L 23.636719 36.292969 L 31.261719 39.394531 L 31.261719 36.640625 L 22.882812 33.234375 L 14.097656 39.816406 " fill-opacity="1" fill-rule="nonzero"/><path fill="#000000" d="M 14.097656 44.402344 L 22.679688 39.605469 L 22.679688 41.558594 L 23.636719 40.878906 L 31.261719 43.976562 L 31.261719 41.226562 L 22.882812 37.816406 L 14.097656 44.402344 " fill-opacity="1" fill-rule="nonzero"/><path fill="#000000" d="M 14.097656 48.984375 L 16.246094 47.375 L 15.648438 48.121094 Z M 14.097656 48.984375 " fill-opacity="1" fill-rule="nonzero"/><path fill="#000000" d="M 31.261719 45.808594 L 31.261719 48.5625 L 31 48.453125 L 23.636719 45.460938 L 22.679688 46.140625 L 22.679688 44.191406 L 18.121094 46.738281 L 17.75 46.6875 L 17.253906 46.621094 L 22.882812 42.402344 L 31.261719 45.808594 " fill-opacity="1" fill-rule="nonzero"/><path fill="#000000" d="M 24.300781 47.5625 L 22.445312 47.3125 L 22.882812 46.984375 Z M 24.300781 47.5625 " fill-opacity="1" fill-rule="nonzero"/><g clip-path="url(#e73e83e011)"><path fill="#e07b2a" d="M 26.609375 62.289062 C 26.453125 62.160156 20.472656 58.183594 17.546875 55.792969 L 2.472656 68.605469 L 16.425781 53.9375 L 17.546875 52.765625 L 19.445312 54.757812 L 26.609375 62.289062 " fill-opacity="1" fill-rule="nonzero"/></g><path fill="#000000" d="M 43.988281 56.816406 L 38.027344 56.816406 L 38.027344 58.878906 L 35.667969 59.167969 L 35.15625 59.226562 L 34.789062 59.582031 L 30.394531 63.785156 L 17.546875 50.285156 L 6.851562 61.523438 L 17.546875 48.210938 L 38.855469 51.054688 L 38.855469 53.65625 L 39.976562 54.835938 L 39.976562 48.875 L 43.480469 48.875 L 43.480469 51.148438 L 48 51.71875 L 53.679688 57.15625 L 43.988281 58.507812 L 43.988281 56.816406 " fill-opacity="1" fill-rule="nonzero"/><path fill="#e07b2a" d="M 14.613281 63.371094 L 14.613281 64.03125 L 17.035156 64.03125 L 17.035156 60.945312 C 15.695312 60.945312 14.613281 62.03125 14.613281 63.371094 " fill-opacity="1" fill-rule="nonzero"/><path fill="#e07b2a" d="M 17.992188 60.945312 L 17.992188 64.03125 L 20.414062 64.03125 L 20.414062 63.371094 C 20.414062 62.03125 19.328125 60.945312 17.992188 60.945312 " fill-opacity="1" fill-rule="nonzero"/><path fill="#e07b2a" d="M 14.613281 67.40625 L 17.035156 67.40625 L 17.035156 64.984375 L 14.613281 64.984375 L 14.613281 67.40625 " fill-opacity="1" fill-rule="nonzero"/><path fill="#e07b2a" d="M 17.992188 67.40625 L 20.414062 67.40625 L 20.414062 64.984375 L 17.992188 64.984375 L 17.992188 67.40625 " fill-opacity="1" fill-rule="nonzero"/><g clip-path="url(#68c3edb2c7)"><path fill="#000000" d="M 72.511719 74.582031 L 63.800781 67.175781 L 60.117188 64.046875 C 59 64.957031 57.34375 66.148438 55.875 67.175781 C 54.179688 68.363281 52.730469 69.328125 52.664062 69.386719 L 54.769531 67.175781 L 58.554688 63.195312 L 59.238281 62.476562 L 60.117188 61.554688 L 61.035156 62.519531 L 72.511719 74.582031 " fill-opacity="1" fill-rule="nonzero"/></g><path fill="#e07b2a" d="M 68.914062 68.757812 L 60.117188 59.515625 L 58.222656 61.503906 L 52.828125 67.175781 L 46.898438 73.40625 L 22.570312 73.40625 L 31.453125 64.902344 L 35.851562 60.691406 L 39.566406 60.242188 L 39.566406 58.355469 L 42.449219 58.355469 L 42.449219 63.257812 L 43.371094 62.289062 L 43.371094 60.148438 L 55.09375 58.511719 L 60.117188 57.808594 L 68.914062 68.757812 " fill-opacity="1" fill-rule="nonzero"/><path fill="#000000" d="M 62.53125 70.277344 L 62.53125 70.820312 L 60.535156 70.820312 L 60.535156 68.28125 C 61.636719 68.28125 62.53125 69.175781 62.53125 70.277344 " fill-opacity="1" fill-rule="nonzero"/><path fill="#000000" d="M 59.75 68.28125 L 59.75 70.820312 L 57.757812 70.820312 L 57.757812 70.277344 C 57.757812 69.175781 58.648438 68.28125 59.75 68.28125 " fill-opacity="1" fill-rule="nonzero"/><path fill="#000000" d="M 62.53125 73.597656 L 60.535156 73.597656 L 60.535156 71.601562 L 62.53125 71.601562 L 62.53125 73.597656 " fill-opacity="1" fill-rule="nonzero"/><path fill="#000000" d="M 59.75 73.597656 L 57.757812 73.597656 L 57.757812 71.601562 L 59.75 71.601562 L 59.75 73.597656 " fill-opacity="1" fill-rule="nonzero"/><path fill="#e07b2a" d="M 31 48.453125 L 31.261719 48.5625 L 31.261719 48.492188 Z M 31 48.453125 " fill-opacity="1" fill-rule="nonzero"/><g fill="#000000" fill-opacity="1"><g transform="translate(25.337111, 54.674995)"><g><path d="M 1.234375 0.046875 C 1.046875 0.046875 0.875 0.00390625 0.71875 -0.078125 C 0.570312 -0.171875 0.453125 -0.300781 0.359375 -0.46875 C 0.273438 -0.632812 0.234375 -0.835938 0.234375 -1.078125 C 0.234375 -1.316406 0.273438 -1.519531 0.359375 -1.6875 C 0.453125 -1.851562 0.570312 -1.976562 0.71875 -2.0625 C 0.875 -2.15625 1.046875 -2.203125 1.234375 -2.203125 C 1.460938 -2.203125 1.644531 -2.15625 1.78125 -2.0625 C 1.914062 -1.976562 2.015625 -1.863281 2.078125 -1.71875 L 1.859375 -1.5625 L 1.8125 -1.5625 C 1.757812 -1.6875 1.6875 -1.773438 1.59375 -1.828125 C 1.5 -1.878906 1.378906 -1.90625 1.234375 -1.90625 C 1.097656 -1.90625 0.976562 -1.875 0.875 -1.8125 C 0.78125 -1.75 0.707031 -1.65625 0.65625 -1.53125 C 0.601562 -1.40625 0.578125 -1.253906 0.578125 -1.078125 C 0.578125 -0.898438 0.601562 -0.75 0.65625 -0.625 C 0.707031 -0.5 0.78125 -0.40625 0.875 -0.34375 C 0.976562 -0.28125 1.097656 -0.25 1.234375 -0.25 C 1.390625 -0.25 1.515625 -0.28125 1.609375 -0.34375 C 1.703125 -0.414062 1.78125 -0.523438 1.84375 -0.671875 L 1.875 -0.671875 L 2.09375 -0.546875 C 2.03125 -0.359375 1.925781 -0.210938 1.78125 -0.109375 C 1.644531 -0.00390625 1.460938 0.046875 1.234375 0.046875 Z M 1.234375 0.046875 "/></g></g></g><g fill="#000000" fill-opacity="1"><g transform="translate(27.555651, 54.674995)"><g><path d="M 0.890625 0.046875 C 0.679688 0.046875 0.515625 -0.0078125 0.390625 -0.125 C 0.273438 -0.238281 0.21875 -0.394531 0.21875 -0.59375 C 0.21875 -0.726562 0.242188 -0.835938 0.296875 -0.921875 C 0.347656 -1.015625 0.425781 -1.085938 0.53125 -1.140625 C 0.644531 -1.191406 0.789062 -1.234375 0.96875 -1.265625 C 1.125 -1.296875 1.242188 -1.328125 1.328125 -1.359375 C 1.410156 -1.390625 1.460938 -1.425781 1.484375 -1.46875 C 1.515625 -1.507812 1.53125 -1.554688 1.53125 -1.609375 C 1.53125 -1.710938 1.492188 -1.789062 1.421875 -1.84375 C 1.359375 -1.894531 1.253906 -1.921875 1.109375 -1.921875 C 0.972656 -1.921875 0.851562 -1.890625 0.75 -1.828125 C 0.65625 -1.773438 0.566406 -1.695312 0.484375 -1.59375 L 0.4375 -1.59375 L 0.28125 -1.8125 C 0.375 -1.925781 0.488281 -2.019531 0.625 -2.09375 C 0.769531 -2.164062 0.929688 -2.203125 1.109375 -2.203125 C 1.359375 -2.203125 1.546875 -2.144531 1.671875 -2.03125 C 1.796875 -1.914062 1.859375 -1.757812 1.859375 -1.5625 L 1.859375 -0.421875 C 1.859375 -0.304688 1.90625 -0.25 2 -0.25 C 2.039062 -0.25 2.078125 -0.253906 2.109375 -0.265625 L 2.125 -0.25 L 2.171875 -0.03125 C 2.140625 -0.0195312 2.101562 -0.0078125 2.0625 0 C 2.03125 0.0078125 1.992188 0.015625 1.953125 0.015625 C 1.835938 0.015625 1.75 -0.0078125 1.6875 -0.0625 C 1.625 -0.113281 1.585938 -0.191406 1.578125 -0.296875 L 1.53125 -0.296875 C 1.46875 -0.179688 1.382812 -0.09375 1.28125 -0.03125 C 1.175781 0.0195312 1.046875 0.046875 0.890625 0.046875 Z M 0.953125 -0.21875 C 1.078125 -0.21875 1.179688 -0.242188 1.265625 -0.296875 C 1.359375 -0.347656 1.425781 -0.425781 1.46875 -0.53125 C 1.519531 -0.632812 1.546875 -0.75 1.546875 -0.875 L 1.546875 -1.15625 L 1.5 -1.15625 C 1.457031 -1.125 1.398438 -1.097656 1.328125 -1.078125 C 1.265625 -1.054688 1.171875 -1.035156 1.046875 -1.015625 C 0.921875 -0.992188 0.820312 -0.960938 0.75 -0.921875 C 0.675781 -0.890625 0.625 -0.847656 0.59375 -0.796875 C 0.5625 -0.742188 0.546875 -0.675781 0.546875 -0.59375 C 0.546875 -0.46875 0.582031 -0.375 0.65625 -0.3125 C 0.726562 -0.25 0.828125 -0.21875 0.953125 -0.21875 Z M 0.953125 -0.21875 "/></g></g></g><g fill="#000000" fill-opacity="1"><g transform="translate(29.781996, 54.674995)"><g><path d="M 1.234375 0.046875 C 1.035156 0.046875 0.859375 0.00390625 0.703125 -0.078125 C 0.554688 -0.171875 0.441406 -0.300781 0.359375 -0.46875 C 0.273438 -0.632812 0.234375 -0.835938 0.234375 -1.078125 C 0.234375 -1.316406 0.273438 -1.519531 0.359375 -1.6875 C 0.441406 -1.851562 0.554688 -1.976562 0.703125 -2.0625 C 0.859375 -2.15625 1.035156 -2.203125 1.234375 -2.203125 C 1.441406 -2.203125 1.617188 -2.15625 1.765625 -2.0625 C 1.921875 -1.976562 2.035156 -1.851562 2.109375 -1.6875 C 2.191406 -1.519531 2.234375 -1.316406 2.234375 -1.078125 C 2.234375 -0.835938 2.191406 -0.632812 2.109375 -0.46875 C 2.035156 -0.300781 1.921875 -0.171875 1.765625 -0.078125 C 1.617188 0.00390625 1.441406 0.046875 1.234375 0.046875 Z M 1.234375 -0.25 C 1.453125 -0.25 1.617188 -0.316406 1.734375 -0.453125 C 1.847656 -0.585938 1.90625 -0.796875 1.90625 -1.078125 C 1.90625 -1.359375 1.847656 -1.566406 1.734375 -1.703125 C 1.617188 -1.835938 1.453125 -1.90625 1.234375 -1.90625 C 1.023438 -1.90625 0.863281 -1.835938 0.75 -1.703125 C 0.632812 -1.566406 0.578125 -1.359375 0.578125 -1.078125 C 0.578125 -0.796875 0.632812 -0.585938 0.75 -0.453125 C 0.863281 -0.316406 1.023438 -0.25 1.234375 -0.25 Z M 1.234375 -0.25 "/></g></g></g></svg>