<svg xmlns="http://www.w3.org/2000/svg" xmlns:xlink="http://www.w3.org/1999/xlink" width="280" zoomAndPan="magnify" viewBox="0 0 210 112.499997" height="150" preserveAspectRatio="xMidYMid meet" version="1.0"><defs><g/><clipPath id="2aec64f20c"><path d="M 27 5.816406 L 57 5.816406 L 57 68 L 27 68 Z M 27 5.816406 " clip-rule="nonzero"/></clipPath><clipPath id="41746467cb"><path d="M 0.464844 71 L 30 71 L 30 92 L 0.464844 92 Z M 0.464844 71 " clip-rule="nonzero"/></clipPath><clipPath id="dfd82a0648"><path d="M 62 82 L 86.964844 82 L 86.964844 99.152344 L 62 99.152344 Z M 62 82 " clip-rule="nonzero"/></clipPath></defs><path fill="#000000" d="M 70.832031 55.3125 L 57.957031 46.222656 L 57.957031 44.875 L 70.832031 53.964844 Z M 70.832031 58.464844 L 57.957031 49.375 L 57.957031 48.027344 L 70.832031 57.117188 Z M 70.832031 61.617188 L 57.957031 52.527344 L 57.957031 51.179688 L 70.832031 60.265625 Z M 70.832031 64.765625 L 57.957031 55.675781 L 57.957031 54.328125 L 70.832031 63.417969 Z M 70.832031 67.917969 L 57.957031 58.828125 L 57.957031 57.480469 L 70.832031 66.570312 Z M 70.832031 71.070312 L 57.957031 61.980469 L 57.957031 60.632812 L 70.832031 69.722656 Z M 70.832031 74.21875 L 57.957031 65.132812 L 57.957031 63.78125 L 70.832031 72.871094 Z M 57.957031 42.054688 L 55.175781 43.65625 L 55.175781 68.394531 L 56.441406 68.554688 L 57.074219 68.636719 L 57.539062 69.078125 L 60.375 71.789062 L 67.410156 76.757812 L 69.546875 76.460938 L 57.957031 68.28125 L 57.957031 66.933594 L 70.832031 76.023438 L 70.832031 76.28125 L 72.285156 76.078125 L 72.433594 76.265625 L 72.433594 52.277344 Z M 52.570312 45.160156 L 52.570312 55.417969 L 51.859375 55.417969 L 51.859375 45.570312 L 49.371094 47.003906 L 49.371094 63.039062 L 48.875 63.039062 L 48.875 47.289062 L 47.25 48.226562 L 47.25 64.960938 L 52.445312 64.960938 L 52.445312 68.050781 L 54.136719 68.265625 L 54.136719 44.257812 L 52.570312 45.160156 " fill-opacity="1" fill-rule="nonzero"/><path fill="#e07b2a" d="M 45.828125 84.546875 L 45.96875 84.671875 L 45.96875 85.785156 L 45.828125 85.660156 L 45.316406 85.207031 L 45.316406 84.09375 L 45.828125 84.546875 " fill-opacity="1" fill-rule="nonzero"/><g clip-path="url(#2aec64f20c)"><path fill="#e07b2a" d="M 55.796875 27.835938 L 52.675781 25.070312 L 52.675781 18.902344 L 55.796875 21.664062 Z M 55.796875 35.117188 L 52.675781 32.351562 L 52.675781 26.183594 L 55.796875 28.949219 Z M 52.113281 24.574219 L 50.085938 22.777344 L 48.992188 21.808594 L 48.992188 15.640625 L 50.085938 16.609375 L 52.113281 18.40625 Z M 52.113281 31.855469 L 50.085938 30.0625 L 48.992188 29.09375 L 48.992188 22.921875 L 50.085938 23.890625 L 52.113281 25.6875 Z M 52.113281 39.136719 L 50.085938 37.34375 L 48.992188 36.375 L 48.992188 30.207031 L 50.085938 31.175781 L 52.113281 32.96875 Z M 48.433594 21.3125 L 47.957031 20.890625 L 45.828125 19.007812 L 45.3125 18.550781 L 45.3125 12.382812 L 45.828125 12.839844 L 47.957031 14.722656 L 48.433594 15.144531 Z M 48.433594 28.597656 L 47.957031 28.175781 L 45.828125 26.289062 L 45.3125 25.832031 L 45.3125 19.664062 L 45.828125 20.121094 L 47.957031 22.007812 L 48.433594 22.425781 Z M 48.433594 35.878906 L 47.957031 35.457031 L 45.828125 33.574219 L 45.3125 33.117188 L 45.3125 26.945312 L 45.828125 27.402344 L 47.957031 29.289062 L 48.433594 29.707031 Z M 48.433594 43.160156 L 47.957031 42.742188 L 45.828125 40.855469 L 45.3125 40.398438 L 45.3125 34.230469 L 45.828125 34.6875 L 47.957031 36.570312 L 48.433594 36.992188 Z M 44.75 18.054688 L 43.695312 17.125 L 41.835938 15.476562 L 41.628906 15.292969 L 41.628906 9.121094 L 41.835938 9.308594 L 43.695312 10.953125 L 44.75 11.886719 Z M 44.75 25.335938 L 43.695312 24.40625 L 41.835938 22.761719 L 41.628906 22.574219 L 41.628906 16.40625 L 41.835938 16.59375 L 43.695312 18.238281 L 44.75 19.167969 Z M 44.75 32.621094 L 43.695312 31.6875 L 41.835938 30.042969 L 41.628906 29.855469 L 41.628906 23.6875 L 41.835938 23.875 L 43.695312 25.519531 L 44.75 26.453125 Z M 44.75 39.902344 L 43.695312 38.96875 L 41.835938 37.324219 L 41.628906 37.136719 L 41.628906 30.96875 L 41.835938 31.15625 L 43.695312 32.800781 L 44.75 33.730469 Z M 44.75 47.183594 L 43.695312 46.25 L 41.835938 44.605469 L 41.628906 44.421875 L 41.628906 38.25 L 41.835938 38.4375 L 43.695312 40.082031 L 44.75 41.015625 Z M 44.75 54.464844 L 43.695312 53.535156 L 41.835938 51.890625 L 41.628906 51.703125 L 41.628906 45.535156 L 41.835938 45.71875 L 43.695312 47.363281 L 44.75 48.296875 Z M 44.75 61.75 L 43.695312 60.816406 L 41.835938 59.171875 L 41.628906 58.984375 L 41.628906 52.816406 L 41.835938 53.003906 L 43.695312 54.648438 L 44.75 55.578125 Z M 55.863281 19.746094 L 52.085938 16.402344 L 49.957031 14.515625 L 47.828125 12.632812 L 45.695312 10.746094 L 43.566406 8.859375 L 41.707031 7.214844 L 40.167969 5.855469 L 27.675781 14.875 L 27.675781 28.800781 L 36.277344 32.300781 L 37.078125 32.625 L 37.078125 66.671875 L 42.972656 67.460938 L 41.835938 66.453125 L 41.628906 66.265625 L 41.628906 60.097656 L 41.835938 60.285156 L 43.695312 61.929688 L 44.75 62.863281 L 44.75 64.960938 L 45.3125 64.960938 L 45.3125 63.359375 L 45.316406 63.363281 L 45.316406 62.246094 L 45.3125 62.246094 L 45.3125 56.078125 L 45.316406 56.078125 L 45.316406 54.964844 L 45.3125 54.960938 L 45.3125 48.792969 L 45.316406 48.796875 L 45.316406 47.683594 L 45.3125 47.679688 L 45.3125 41.511719 L 45.828125 41.96875 L 47.957031 43.851562 L 48.433594 44.273438 L 48.433594 45.308594 L 48.992188 44.988281 L 48.992188 44.769531 L 49.140625 44.902344 L 49.902344 44.460938 L 48.992188 43.65625 L 48.992188 37.488281 L 50.085938 38.457031 L 52.113281 40.25 L 52.113281 43.1875 L 52.675781 42.863281 L 52.675781 40.746094 L 54.121094 42.03125 L 54.210938 41.980469 L 54.882812 41.589844 L 52.675781 39.636719 L 52.675781 33.464844 L 55.796875 36.230469 L 55.796875 41.0625 L 56.789062 40.496094 L 56.789062 20.5625 L 55.863281 19.746094 " fill-opacity="1" fill-rule="nonzero"/></g><path fill="#000000" d="M 13.5 38.167969 L 24.308594 32.128906 L 24.308594 34.585938 L 25.515625 33.730469 L 35.117188 37.632812 L 35.117188 34.164062 L 24.566406 29.875 L 13.5 38.167969 " fill-opacity="1" fill-rule="nonzero"/><path fill="#000000" d="M 13.5 43.941406 L 24.308594 37.902344 L 24.308594 40.359375 L 25.515625 39.503906 L 35.117188 43.40625 L 35.117188 39.941406 L 24.566406 35.648438 L 13.5 43.941406 " fill-opacity="1" fill-rule="nonzero"/><path fill="#000000" d="M 13.5 49.714844 L 24.308594 43.675781 L 24.308594 46.132812 L 25.515625 45.277344 L 35.117188 49.179688 L 35.117188 45.714844 L 24.566406 41.421875 L 13.5 49.714844 " fill-opacity="1" fill-rule="nonzero"/><path fill="#000000" d="M 13.5 55.488281 L 24.308594 49.449219 L 24.308594 51.90625 L 25.515625 51.050781 L 35.117188 54.953125 L 35.117188 51.488281 L 24.566406 47.195312 L 13.5 55.488281 " fill-opacity="1" fill-rule="nonzero"/><path fill="#000000" d="M 13.5 61.261719 L 24.308594 55.222656 L 24.308594 57.679688 L 25.515625 56.824219 L 35.117188 60.726562 L 35.117188 57.261719 L 24.566406 52.96875 L 13.5 61.261719 " fill-opacity="1" fill-rule="nonzero"/><path fill="#000000" d="M 13.5 67.035156 L 16.203125 65.007812 L 15.453125 65.945312 Z M 13.5 67.035156 " fill-opacity="1" fill-rule="nonzero"/><path fill="#000000" d="M 35.117188 63.03125 L 35.117188 66.5 L 34.785156 66.367188 L 25.515625 62.597656 L 24.308594 63.453125 L 24.308594 60.996094 L 18.566406 64.203125 L 18.097656 64.140625 L 17.472656 64.054688 L 24.566406 58.742188 L 35.117188 63.03125 " fill-opacity="1" fill-rule="nonzero"/><path fill="#000000" d="M 26.347656 65.242188 L 24.011719 64.929688 L 24.566406 64.515625 Z M 26.347656 65.242188 " fill-opacity="1" fill-rule="nonzero"/><g clip-path="url(#41746467cb)"><path fill="#e07b2a" d="M 29.257812 83.792969 C 29.058594 83.628906 21.527344 78.621094 17.839844 75.609375 L -1.144531 91.746094 L 16.433594 73.273438 L 17.839844 71.792969 L 20.230469 74.308594 L 29.257812 83.792969 " fill-opacity="1" fill-rule="nonzero"/></g><path fill="#000000" d="M 51.148438 76.898438 L 43.640625 76.898438 L 43.640625 79.5 L 40.667969 79.859375 L 40.027344 79.9375 L 39.558594 80.382812 L 34.027344 85.679688 L 17.839844 68.671875 L 4.371094 82.828125 L 17.84375 66.058594 L 44.679688 69.640625 L 44.679688 72.921875 L 46.09375 74.40625 L 46.09375 66.894531 L 50.511719 66.894531 L 50.511719 69.761719 L 56.199219 70.476562 L 63.355469 77.328125 L 51.148438 79.03125 L 51.148438 76.898438 " fill-opacity="1" fill-rule="nonzero"/><path fill="#e07b2a" d="M 14.144531 85.152344 L 14.144531 85.988281 L 17.199219 85.988281 L 17.199219 82.101562 C 15.511719 82.101562 14.144531 83.46875 14.144531 85.152344 " fill-opacity="1" fill-rule="nonzero"/><path fill="#e07b2a" d="M 18.402344 82.101562 L 18.402344 85.988281 L 21.453125 85.988281 L 21.453125 85.152344 C 21.453125 83.46875 20.089844 82.101562 18.402344 82.101562 " fill-opacity="1" fill-rule="nonzero"/><path fill="#e07b2a" d="M 14.144531 90.238281 L 17.199219 90.238281 L 17.199219 87.1875 L 14.144531 87.1875 L 14.144531 90.238281 " fill-opacity="1" fill-rule="nonzero"/><path fill="#e07b2a" d="M 18.402344 90.238281 L 21.453125 90.238281 L 21.453125 87.1875 L 18.402344 87.1875 L 18.402344 90.238281 " fill-opacity="1" fill-rule="nonzero"/><g clip-path="url(#dfd82a0648)"><path fill="#000000" d="M 87.078125 99.277344 L 76.101562 89.949219 L 71.464844 86.003906 C 70.058594 87.152344 67.96875 88.652344 66.121094 89.949219 C 63.984375 91.445312 62.160156 92.660156 62.074219 92.734375 L 64.726562 89.949219 L 69.496094 84.933594 L 70.355469 84.027344 L 71.464844 82.867188 L 72.621094 84.082031 L 87.078125 99.277344 " fill-opacity="1" fill-rule="nonzero"/></g><path fill="#e07b2a" d="M 82.542969 91.941406 L 71.464844 80.296875 L 69.078125 82.804688 L 62.28125 89.949219 L 54.8125 97.792969 L 24.171875 97.792969 L 35.363281 87.082031 L 40.898438 81.78125 L 45.578125 81.214844 L 45.578125 78.835938 L 49.210938 78.835938 L 49.210938 85.011719 L 50.371094 83.792969 L 50.371094 81.09375 L 65.136719 79.03125 L 71.464844 78.148438 L 82.542969 91.941406 " fill-opacity="1" fill-rule="nonzero"/><path fill="#000000" d="M 74.503906 93.851562 L 74.503906 94.539062 L 71.992188 94.539062 L 71.992188 91.34375 C 73.378906 91.34375 74.503906 92.464844 74.503906 93.851562 " fill-opacity="1" fill-rule="nonzero"/><path fill="#000000" d="M 71.003906 91.34375 L 71.003906 94.539062 L 68.492188 94.539062 L 68.492188 93.851562 C 68.492188 92.464844 69.617188 91.34375 71.003906 91.34375 " fill-opacity="1" fill-rule="nonzero"/><path fill="#000000" d="M 74.503906 98.035156 L 71.992188 98.035156 L 71.992188 95.523438 L 74.503906 95.523438 L 74.503906 98.035156 " fill-opacity="1" fill-rule="nonzero"/><path fill="#000000" d="M 71.003906 98.035156 L 68.492188 98.035156 L 68.492188 95.523438 L 71.003906 95.523438 L 71.003906 98.035156 " fill-opacity="1" fill-rule="nonzero"/><path fill="#e07b2a" d="M 34.785156 66.367188 L 35.117188 66.5 L 35.117188 66.410156 Z M 34.785156 66.367188 " fill-opacity="1" fill-rule="nonzero"/><g fill="#000000" fill-opacity="1"><g transform="translate(77.95411, 64.214597)"><g><path d="M 9.65625 0.28125 C 8 0.28125 6.5 -0.078125 5.15625 -0.796875 C 3.820312 -1.515625 2.773438 -2.503906 2.015625 -3.765625 C 1.265625 -5.023438 0.890625 -6.441406 0.890625 -8.015625 C 0.890625 -9.585938 1.265625 -11 2.015625 -12.25 C 2.773438 -13.507812 3.820312 -14.5 5.15625 -15.21875 C 6.5 -15.9375 8 -16.296875 9.65625 -16.296875 C 11.320312 -16.296875 12.816406 -15.9375 14.140625 -15.21875 C 15.472656 -14.5 16.519531 -13.507812 17.28125 -12.25 C 18.039062 -11 18.421875 -9.585938 18.421875 -8.015625 C 18.421875 -6.441406 18.039062 -5.023438 17.28125 -3.765625 C 16.519531 -2.503906 15.472656 -1.515625 14.140625 -0.796875 C 12.816406 -0.078125 11.320312 0.28125 9.65625 0.28125 Z M 9.65625 -2.890625 C 10.601562 -2.890625 11.457031 -3.101562 12.21875 -3.53125 C 12.988281 -3.96875 13.585938 -4.578125 14.015625 -5.359375 C 14.453125 -6.140625 14.671875 -7.023438 14.671875 -8.015625 C 14.671875 -9.003906 14.453125 -9.882812 14.015625 -10.65625 C 13.585938 -11.4375 12.988281 -12.046875 12.21875 -12.484375 C 11.457031 -12.921875 10.601562 -13.140625 9.65625 -13.140625 C 8.707031 -13.140625 7.851562 -12.921875 7.09375 -12.484375 C 6.332031 -12.046875 5.734375 -11.4375 5.296875 -10.65625 C 4.859375 -9.882812 4.640625 -9.003906 4.640625 -8.015625 C 4.640625 -7.023438 4.859375 -6.140625 5.296875 -5.359375 C 5.734375 -4.578125 6.332031 -3.96875 7.09375 -3.53125 C 7.851562 -3.101562 8.707031 -2.890625 9.65625 -2.890625 Z M 9.65625 -2.890625 "/></g></g></g><g fill="#000000" fill-opacity="1"><g transform="translate(97.273704, 64.214597)"><g><path d="M 14.359375 -12.3125 L 14.359375 -2.0625 C 14.359375 0.195312 13.769531 1.875 12.59375 2.96875 C 11.414062 4.070312 9.695312 4.625 7.4375 4.625 C 6.25 4.625 5.117188 4.476562 4.046875 4.1875 C 2.984375 3.894531 2.097656 3.476562 1.390625 2.9375 L 2.8125 0.359375 C 3.332031 0.785156 3.988281 1.125 4.78125 1.375 C 5.570312 1.632812 6.367188 1.765625 7.171875 1.765625 C 8.398438 1.765625 9.304688 1.484375 9.890625 0.921875 C 10.484375 0.367188 10.78125 -0.472656 10.78125 -1.609375 L 10.78125 -2.125 C 9.851562 -1.101562 8.554688 -0.59375 6.890625 -0.59375 C 5.765625 -0.59375 4.726562 -0.835938 3.78125 -1.328125 C 2.84375 -1.828125 2.097656 -2.523438 1.546875 -3.421875 C 1.003906 -4.328125 0.734375 -5.367188 0.734375 -6.546875 C 0.734375 -7.722656 1.003906 -8.757812 1.546875 -9.65625 C 2.097656 -10.5625 2.84375 -11.257812 3.78125 -11.75 C 4.726562 -12.25 5.765625 -12.5 6.890625 -12.5 C 8.671875 -12.5 10.03125 -11.910156 10.96875 -10.734375 L 10.96875 -12.3125 Z M 7.59375 -3.53125 C 8.539062 -3.53125 9.316406 -3.804688 9.921875 -4.359375 C 10.523438 -4.921875 10.828125 -5.648438 10.828125 -6.546875 C 10.828125 -7.441406 10.523438 -8.164062 9.921875 -8.71875 C 9.316406 -9.28125 8.539062 -9.5625 7.59375 -9.5625 C 6.65625 -9.5625 5.878906 -9.28125 5.265625 -8.71875 C 4.648438 -8.164062 4.34375 -7.441406 4.34375 -6.546875 C 4.34375 -5.648438 4.648438 -4.921875 5.265625 -4.359375 C 5.878906 -3.804688 6.65625 -3.53125 7.59375 -3.53125 Z M 7.59375 -3.53125 "/></g></g></g><g fill="#000000" fill-opacity="1"><g transform="translate(113.29707, 64.214597)"><g><path d="M 1.640625 -16.984375 L 5.21875 -16.984375 L 5.21875 0 L 1.640625 0 Z M 1.640625 -16.984375 "/></g></g></g><g fill="#000000" fill-opacity="1"><g transform="translate(120.187113, 64.214597)"><g><path d="M 6.609375 -12.5 C 8.523438 -12.5 9.992188 -12.046875 11.015625 -11.140625 C 12.035156 -10.234375 12.546875 -8.863281 12.546875 -7.03125 L 12.546875 0 L 9.203125 0 L 9.203125 -1.53125 C 8.523438 -0.382812 7.273438 0.1875 5.453125 0.1875 C 4.503906 0.1875 3.679688 0.0234375 2.984375 -0.296875 C 2.296875 -0.617188 1.765625 -1.0625 1.390625 -1.625 C 1.023438 -2.1875 0.84375 -2.828125 0.84375 -3.546875 C 0.84375 -4.691406 1.273438 -5.59375 2.140625 -6.25 C 3.003906 -6.90625 4.335938 -7.234375 6.140625 -7.234375 L 8.96875 -7.234375 C 8.96875 -8.015625 8.726562 -8.613281 8.25 -9.03125 C 7.78125 -9.445312 7.078125 -9.65625 6.140625 -9.65625 C 5.484375 -9.65625 4.835938 -9.550781 4.203125 -9.34375 C 3.566406 -9.144531 3.03125 -8.867188 2.59375 -8.515625 L 1.3125 -11.015625 C 1.976562 -11.484375 2.78125 -11.847656 3.71875 -12.109375 C 4.65625 -12.367188 5.617188 -12.5 6.609375 -12.5 Z M 6.34375 -2.21875 C 6.945312 -2.21875 7.484375 -2.359375 7.953125 -2.640625 C 8.429688 -2.921875 8.769531 -3.335938 8.96875 -3.890625 L 8.96875 -5.15625 L 6.53125 -5.15625 C 5.0625 -5.15625 4.328125 -4.671875 4.328125 -3.703125 C 4.328125 -3.242188 4.503906 -2.878906 4.859375 -2.609375 C 5.222656 -2.347656 5.71875 -2.21875 6.34375 -2.21875 Z M 6.34375 -2.21875 "/></g></g></g><g fill="#000000" fill-opacity="1"><g transform="translate(134.310563, 64.214597)"><g><path d="M 5.796875 0.1875 C 4.765625 0.1875 3.757812 0.0625 2.78125 -0.1875 C 1.8125 -0.445312 1.035156 -0.765625 0.453125 -1.140625 L 1.640625 -3.703125 C 2.191406 -3.359375 2.859375 -3.070312 3.640625 -2.84375 C 4.421875 -2.625 5.179688 -2.515625 5.921875 -2.515625 C 7.429688 -2.515625 8.1875 -2.890625 8.1875 -3.640625 C 8.1875 -3.992188 7.976562 -4.242188 7.5625 -4.390625 C 7.15625 -4.546875 6.523438 -4.675781 5.671875 -4.78125 C 4.671875 -4.9375 3.84375 -5.113281 3.1875 -5.3125 C 2.53125 -5.507812 1.957031 -5.859375 1.46875 -6.359375 C 0.988281 -6.867188 0.75 -7.585938 0.75 -8.515625 C 0.75 -9.296875 0.972656 -9.984375 1.421875 -10.578125 C 1.878906 -11.179688 2.535156 -11.648438 3.390625 -11.984375 C 4.253906 -12.328125 5.273438 -12.5 6.453125 -12.5 C 7.328125 -12.5 8.191406 -12.398438 9.046875 -12.203125 C 9.910156 -12.015625 10.625 -11.753906 11.1875 -11.421875 L 10 -8.875 C 8.914062 -9.488281 7.734375 -9.796875 6.453125 -9.796875 C 5.691406 -9.796875 5.117188 -9.6875 4.734375 -9.46875 C 4.359375 -9.257812 4.171875 -8.988281 4.171875 -8.65625 C 4.171875 -8.269531 4.375 -8 4.78125 -7.84375 C 5.195312 -7.695312 5.851562 -7.554688 6.75 -7.421875 C 7.757812 -7.253906 8.582031 -7.070312 9.21875 -6.875 C 9.863281 -6.6875 10.421875 -6.335938 10.890625 -5.828125 C 11.367188 -5.328125 11.609375 -4.628906 11.609375 -3.734375 C 11.609375 -2.972656 11.378906 -2.289062 10.921875 -1.6875 C 10.460938 -1.09375 9.789062 -0.628906 8.90625 -0.296875 C 8.03125 0.0234375 6.992188 0.1875 5.796875 0.1875 Z M 5.796875 0.1875 "/></g></g></g><g fill="#000000" fill-opacity="1"><g transform="translate(146.46543, 64.214597)"><g><path d="M 1.640625 -12.3125 L 5.21875 -12.3125 L 5.21875 0 L 1.640625 0 Z M 3.4375 -14.03125 C 2.78125 -14.03125 2.242188 -14.21875 1.828125 -14.59375 C 1.410156 -14.976562 1.203125 -15.453125 1.203125 -16.015625 C 1.203125 -16.585938 1.410156 -17.0625 1.828125 -17.4375 C 2.242188 -17.820312 2.78125 -18.015625 3.4375 -18.015625 C 4.082031 -18.015625 4.613281 -17.832031 5.03125 -17.46875 C 5.445312 -17.101562 5.65625 -16.644531 5.65625 -16.09375 C 5.65625 -15.5 5.445312 -15.003906 5.03125 -14.609375 C 4.613281 -14.222656 4.082031 -14.03125 3.4375 -14.03125 Z M 3.4375 -14.03125 "/></g></g></g><g fill="#e07b2a" fill-opacity="1"><g transform="translate(153.182258, 64.214597)"><g><path d="M 7.171875 0.28125 C 5.898438 0.28125 4.671875 0.109375 3.484375 -0.234375 C 2.304688 -0.578125 1.359375 -1.023438 0.640625 -1.578125 L 1.90625 -4.375 C 2.59375 -3.863281 3.40625 -3.457031 4.34375 -3.15625 C 5.289062 -2.851562 6.238281 -2.703125 7.1875 -2.703125 C 8.238281 -2.703125 9.015625 -2.859375 9.515625 -3.171875 C 10.023438 -3.484375 10.28125 -3.898438 10.28125 -4.421875 C 10.28125 -4.796875 10.128906 -5.109375 9.828125 -5.359375 C 9.535156 -5.617188 9.15625 -5.820312 8.6875 -5.96875 C 8.21875 -6.125 7.585938 -6.296875 6.796875 -6.484375 C 5.578125 -6.765625 4.578125 -7.050781 3.796875 -7.34375 C 3.015625 -7.632812 2.347656 -8.097656 1.796875 -8.734375 C 1.242188 -9.378906 0.96875 -10.238281 0.96875 -11.3125 C 0.96875 -12.238281 1.21875 -13.078125 1.71875 -13.828125 C 2.21875 -14.585938 2.972656 -15.1875 3.984375 -15.625 C 5.003906 -16.070312 6.25 -16.296875 7.71875 -16.296875 C 8.738281 -16.296875 9.734375 -16.171875 10.703125 -15.921875 C 11.679688 -15.679688 12.539062 -15.332031 13.28125 -14.875 L 12.125 -12.0625 C 10.644531 -12.90625 9.164062 -13.328125 7.6875 -13.328125 C 6.65625 -13.328125 5.890625 -13.15625 5.390625 -12.8125 C 4.890625 -12.476562 4.640625 -12.035156 4.640625 -11.484375 C 4.640625 -10.941406 4.925781 -10.535156 5.5 -10.265625 C 6.070312 -9.992188 6.945312 -9.734375 8.125 -9.484375 C 9.34375 -9.191406 10.34375 -8.898438 11.125 -8.609375 C 11.90625 -8.316406 12.570312 -7.859375 13.125 -7.234375 C 13.6875 -6.609375 13.96875 -5.757812 13.96875 -4.6875 C 13.96875 -3.769531 13.707031 -2.929688 13.1875 -2.171875 C 12.675781 -1.421875 11.910156 -0.820312 10.890625 -0.375 C 9.867188 0.0625 8.628906 0.28125 7.171875 0.28125 Z M 7.171875 0.28125 "/></g></g></g><g fill="#e07b2a" fill-opacity="1"><g transform="translate(167.786409, 64.214597)"><g><path d="M 9.59375 -0.59375 C 9.238281 -0.332031 8.804688 -0.132812 8.296875 0 C 7.785156 0.125 7.25 0.1875 6.6875 0.1875 C 5.21875 0.1875 4.082031 -0.1875 3.28125 -0.9375 C 2.476562 -1.6875 2.078125 -2.785156 2.078125 -4.234375 L 2.078125 -9.296875 L 0.1875 -9.296875 L 0.1875 -12.046875 L 2.078125 -12.046875 L 2.078125 -15.046875 L 5.65625 -15.046875 L 5.65625 -12.046875 L 8.71875 -12.046875 L 8.71875 -9.296875 L 5.65625 -9.296875 L 5.65625 -4.28125 C 5.65625 -3.757812 5.785156 -3.359375 6.046875 -3.078125 C 6.316406 -2.796875 6.695312 -2.65625 7.1875 -2.65625 C 7.75 -2.65625 8.226562 -2.804688 8.625 -3.109375 Z M 9.59375 -0.59375 "/></g></g></g><g fill="#e07b2a" fill-opacity="1"><g transform="translate(177.743786, 64.214597)"><g><path d="M 6.609375 -12.5 C 8.523438 -12.5 9.992188 -12.046875 11.015625 -11.140625 C 12.035156 -10.234375 12.546875 -8.863281 12.546875 -7.03125 L 12.546875 0 L 9.203125 0 L 9.203125 -1.53125 C 8.523438 -0.382812 7.273438 0.1875 5.453125 0.1875 C 4.503906 0.1875 3.679688 0.0234375 2.984375 -0.296875 C 2.296875 -0.617188 1.765625 -1.0625 1.390625 -1.625 C 1.023438 -2.1875 0.84375 -2.828125 0.84375 -3.546875 C 0.84375 -4.691406 1.273438 -5.59375 2.140625 -6.25 C 3.003906 -6.90625 4.335938 -7.234375 6.140625 -7.234375 L 8.96875 -7.234375 C 8.96875 -8.015625 8.726562 -8.613281 8.25 -9.03125 C 7.78125 -9.445312 7.078125 -9.65625 6.140625 -9.65625 C 5.484375 -9.65625 4.835938 -9.550781 4.203125 -9.34375 C 3.566406 -9.144531 3.03125 -8.867188 2.59375 -8.515625 L 1.3125 -11.015625 C 1.976562 -11.484375 2.78125 -11.847656 3.71875 -12.109375 C 4.65625 -12.367188 5.617188 -12.5 6.609375 -12.5 Z M 6.34375 -2.21875 C 6.945312 -2.21875 7.484375 -2.359375 7.953125 -2.640625 C 8.429688 -2.921875 8.769531 -3.335938 8.96875 -3.890625 L 8.96875 -5.15625 L 6.53125 -5.15625 C 5.0625 -5.15625 4.328125 -4.671875 4.328125 -3.703125 C 4.328125 -3.242188 4.503906 -2.878906 4.859375 -2.609375 C 5.222656 -2.347656 5.71875 -2.21875 6.34375 -2.21875 Z M 6.34375 -2.21875 "/></g></g></g><g fill="#e07b2a" fill-opacity="1"><g transform="translate(191.867236, 64.214597)"><g><path d="M 9.140625 -12.5 C 10.660156 -12.5 11.890625 -12.039062 12.828125 -11.125 C 13.765625 -10.207031 14.234375 -8.847656 14.234375 -7.046875 L 14.234375 0 L 10.671875 0 L 10.671875 -6.5 C 10.671875 -7.476562 10.457031 -8.207031 10.03125 -8.6875 C 9.601562 -9.164062 8.984375 -9.40625 8.171875 -9.40625 C 7.273438 -9.40625 6.554688 -9.125 6.015625 -8.5625 C 5.484375 -8.007812 5.21875 -7.1875 5.21875 -6.09375 L 5.21875 0 L 1.640625 0 L 1.640625 -12.3125 L 5.0625 -12.3125 L 5.0625 -10.875 C 5.53125 -11.394531 6.113281 -11.796875 6.8125 -12.078125 C 7.519531 -12.359375 8.296875 -12.5 9.140625 -12.5 Z M 9.140625 -12.5 "/></g></g></g></svg>