<svg xmlns="http://www.w3.org/2000/svg" xmlns:xlink="http://www.w3.org/1999/xlink" width="250" zoomAndPan="magnify" viewBox="0 0 187.5 187.499992" height="250" preserveAspectRatio="xMidYMid meet" version="1.0"><defs><g/><clipPath id="c03832eaf3"><path d="M 12.046875 6.878906 L 174.945312 6.878906 L 174.945312 169.78125 L 12.046875 169.78125 Z M 12.046875 6.878906 " clip-rule="nonzero"/></clipPath><clipPath id="86057ef8d5"><path d="M 93.496094 6.878906 C 48.511719 6.878906 12.046875 43.34375 12.046875 88.328125 C 12.046875 133.3125 48.511719 169.78125 93.496094 169.78125 C 138.480469 169.78125 174.945312 133.3125 174.945312 88.328125 C 174.945312 43.34375 138.480469 6.878906 93.496094 6.878906 Z M 93.496094 6.878906 " clip-rule="nonzero"/></clipPath><clipPath id="cf7be26bb7"><path d="M 16.105469 10.9375 L 170.894531 10.9375 L 170.894531 165.726562 L 16.105469 165.726562 Z M 16.105469 10.9375 " clip-rule="nonzero"/></clipPath><clipPath id="e6cc48ea9d"><path d="M 93.5 10.9375 C 50.753906 10.9375 16.105469 45.589844 16.105469 88.332031 C 16.105469 131.078125 50.753906 165.726562 93.5 165.726562 C 136.242188 165.726562 170.894531 131.078125 170.894531 88.332031 C 170.894531 45.589844 136.242188 10.9375 93.5 10.9375 Z M 93.5 10.9375 " clip-rule="nonzero"/></clipPath><clipPath id="91870ab99a"><path d="M 12.046875 131.683594 L 174.957031 131.683594 L 174.957031 180.125 L 12.046875 180.125 Z M 12.046875 131.683594 " clip-rule="nonzero"/></clipPath><clipPath id="d57fb6c0fc"><path d="M 0.046875 0.683594 L 162.957031 0.683594 L 162.957031 49.125 L 0.046875 49.125 Z M 0.046875 0.683594 " clip-rule="nonzero"/></clipPath><clipPath id="bdd7fef8c2"><rect x="0" width="163" y="0" height="50"/></clipPath><clipPath id="75b70d424f"><path d="M 40.113281 104 L 77 104 L 77 129 L 40.113281 129 Z M 40.113281 104 " clip-rule="nonzero"/></clipPath><clipPath id="290083cad2"><path d="M 116 118 L 147 118 L 147 137.917969 L 116 137.917969 Z M 116 118 " clip-rule="nonzero"/></clipPath><clipPath id="f870ba1141"><rect x="0" width="106" y="0" height="11"/></clipPath></defs><g clip-path="url(#c03832eaf3)"><g clip-path="url(#86057ef8d5)"><path stroke-linecap="butt" transform="matrix(0.748005, 0, 0, 0.748005, 12.045343, 6.8782)" fill="none" stroke-linejoin="miter" d="M 108.890613 0.000944029 C 48.751497 0.000944029 0.00204806 48.750393 0.00204806 108.889509 C 0.00204806 169.028625 48.751497 217.783296 108.890613 217.783296 C 169.029729 217.783296 217.779178 169.028625 217.779178 108.889509 C 217.779178 48.750393 169.029729 0.000944029 108.890613 0.000944029 Z M 108.890613 0.000944029 " stroke="#383535" stroke-width="4" stroke-opacity="1" stroke-miterlimit="4"/></g></g><g clip-path="url(#cf7be26bb7)"><g clip-path="url(#e6cc48ea9d)"><path stroke-linecap="butt" transform="matrix(0.748005, 0, 0, 0.748005, 16.104446, 10.937302)" fill="none" stroke-linejoin="miter" d="M 103.469272 0.000264095 C 46.322485 0.000264095 0.00136749 46.326604 0.00136749 103.468168 C 0.00136749 160.614955 46.322485 206.936073 103.469272 206.936073 C 160.610836 206.936073 206.937176 160.614955 206.937176 103.468168 C 206.937176 46.326604 160.610836 0.000264095 103.469272 0.000264095 Z M 103.469272 0.000264095 " stroke="#383535" stroke-width="2" stroke-opacity="1" stroke-miterlimit="4"/></g></g><g clip-path="url(#91870ab99a)"><g transform="matrix(1, 0, 0, 1, 12, 131)"><g clip-path="url(#bdd7fef8c2)"><g clip-path="url(#d57fb6c0fc)"><path fill="#ffffff" d="M 0.046875 0.683594 L 162.957031 0.683594 L 162.957031 49.125 L 0.046875 49.125 Z M 0.046875 0.683594 " fill-opacity="1" fill-rule="nonzero"/></g></g></g></g><path fill="#ceaf83" d="M 127.214844 84.867188 L 111.632812 73.867188 L 111.632812 72.234375 L 127.214844 83.234375 Z M 127.214844 88.679688 L 111.632812 77.679688 L 111.632812 76.050781 L 127.214844 87.046875 Z M 127.214844 92.492188 L 111.632812 81.492188 L 111.632812 79.863281 L 127.214844 90.863281 Z M 127.214844 96.308594 L 111.632812 85.304688 L 111.632812 83.675781 L 127.214844 94.675781 Z M 127.214844 100.117188 L 111.632812 89.121094 L 111.632812 87.488281 L 127.214844 98.488281 Z M 127.214844 103.933594 L 111.632812 92.933594 L 111.632812 91.300781 L 127.214844 102.300781 Z M 127.214844 107.746094 L 111.632812 96.746094 L 111.632812 95.117188 L 127.214844 106.113281 Z M 111.632812 68.820312 L 108.269531 70.757812 L 108.269531 100.699219 L 109.796875 100.890625 L 110.566406 100.988281 L 111.125 101.523438 L 114.558594 104.804688 L 123.074219 110.820312 L 125.65625 110.460938 L 111.632812 100.558594 L 111.632812 98.929688 L 127.214844 109.929688 L 127.214844 110.242188 L 127.652344 110.179688 L 128.972656 109.996094 L 129.152344 110.222656 L 129.152344 81.191406 Z M 105.113281 72.578125 L 105.113281 84.992188 L 104.253906 84.992188 L 104.253906 73.074219 L 101.242188 74.8125 L 101.242188 94.21875 L 100.640625 94.21875 L 100.640625 75.15625 L 98.675781 76.289062 L 98.675781 96.539062 L 104.964844 96.539062 L 104.964844 100.28125 L 107.007812 100.539062 L 107.007812 71.488281 L 105.113281 72.578125 " fill-opacity="1" fill-rule="nonzero"/><path fill="#383535" d="M 96.953125 120.246094 L 97.121094 120.394531 L 97.121094 121.742188 L 96.953125 121.59375 L 96.332031 121.042969 L 96.332031 119.695312 L 96.953125 120.246094 " fill-opacity="1" fill-rule="nonzero"/><path fill="#383535" d="M 109.019531 51.613281 L 105.242188 48.265625 L 105.242188 40.800781 L 109.019531 44.148438 Z M 109.019531 60.425781 L 105.242188 57.082031 L 105.242188 49.613281 L 109.019531 52.960938 Z M 104.5625 47.667969 L 102.109375 45.492188 L 100.785156 44.324219 L 100.785156 36.855469 L 102.109375 38.027344 L 104.5625 40.199219 Z M 104.5625 56.480469 L 102.109375 54.308594 L 100.785156 53.136719 L 100.785156 45.667969 L 102.109375 46.839844 L 104.5625 49.011719 Z M 104.5625 65.292969 L 102.109375 63.121094 L 100.785156 61.949219 L 100.785156 54.484375 L 102.109375 55.65625 L 104.5625 57.828125 Z M 100.105469 43.71875 L 99.53125 43.210938 L 96.953125 40.933594 L 96.328125 40.378906 L 96.328125 32.914062 L 96.953125 33.46875 L 99.53125 35.746094 L 100.105469 36.257812 Z M 100.105469 52.535156 L 99.53125 52.023438 L 96.953125 49.746094 L 96.328125 49.191406 L 96.328125 41.726562 L 96.953125 42.277344 L 99.53125 44.558594 L 100.105469 45.066406 Z M 100.105469 61.347656 L 99.53125 60.835938 L 96.953125 58.558594 L 96.328125 58.003906 L 96.328125 50.539062 L 96.953125 51.089844 L 99.53125 53.371094 L 100.105469 53.882812 Z M 100.105469 70.160156 L 99.53125 69.652344 L 96.953125 67.371094 L 96.328125 66.820312 L 96.328125 59.351562 L 96.953125 59.90625 L 99.53125 62.1875 L 100.105469 62.695312 Z M 95.648438 39.777344 L 94.375 38.652344 L 92.125 36.660156 L 91.871094 36.433594 L 91.871094 28.96875 L 92.125 29.195312 L 94.375 31.1875 L 95.648438 32.3125 Z M 95.648438 48.589844 L 94.375 47.464844 L 92.125 45.472656 L 91.871094 45.246094 L 91.871094 37.78125 L 92.125 38.007812 L 94.375 40 L 95.648438 41.125 Z M 95.648438 57.402344 L 94.375 56.277344 L 92.125 54.285156 L 91.871094 54.058594 L 91.871094 46.59375 L 92.125 46.820312 L 94.375 48.8125 L 95.648438 49.9375 Z M 95.648438 66.21875 L 94.375 65.085938 L 92.125 63.097656 L 91.871094 62.871094 L 91.871094 55.40625 L 92.125 55.632812 L 94.375 57.625 L 95.648438 58.75 Z M 95.648438 75.027344 L 94.375 73.898438 L 92.125 71.910156 L 91.871094 71.683594 L 91.871094 64.21875 L 92.125 64.445312 L 94.375 66.4375 L 95.648438 67.5625 Z M 95.648438 83.839844 L 94.375 82.714844 L 92.125 80.722656 L 91.871094 80.496094 L 91.871094 73.03125 L 92.125 73.257812 L 94.375 75.246094 L 95.648438 76.375 Z M 95.648438 92.652344 L 94.375 91.527344 L 92.125 89.535156 L 91.871094 89.308594 L 91.871094 81.84375 L 92.125 82.070312 L 94.375 84.0625 L 95.648438 85.1875 Z M 109.097656 41.824219 L 104.527344 37.777344 L 96.792969 30.933594 L 94.21875 28.652344 L 91.96875 26.660156 L 90.105469 25.011719 L 74.988281 35.933594 L 74.988281 52.785156 L 85.394531 57.015625 L 86.363281 57.410156 L 86.363281 98.613281 L 93.5 99.566406 L 92.125 98.347656 L 91.871094 98.121094 L 91.871094 90.65625 L 92.125 90.882812 L 94.375 92.875 L 95.648438 94 L 95.648438 96.539062 L 96.328125 96.539062 L 96.328125 94.601562 L 96.332031 94.605469 L 96.332031 93.257812 L 96.328125 93.253906 L 96.328125 85.789062 L 96.332031 85.792969 L 96.332031 84.445312 L 96.328125 84.441406 L 96.328125 76.976562 L 96.332031 76.980469 L 96.332031 75.632812 L 96.328125 75.628906 L 96.328125 68.164062 L 96.953125 68.71875 L 99.53125 70.996094 L 100.105469 71.503906 L 100.105469 72.761719 L 100.785156 72.371094 L 100.785156 72.105469 L 100.964844 72.265625 L 101.882812 71.734375 L 100.785156 70.761719 L 100.785156 63.296875 L 102.109375 64.46875 L 104.5625 66.640625 L 104.5625 70.191406 L 105.242188 69.800781 L 105.242188 67.238281 L 106.992188 68.789062 L 107.097656 68.730469 L 107.914062 68.257812 L 105.242188 65.894531 L 105.242188 58.425781 L 109.019531 61.773438 L 109.019531 67.621094 L 110.21875 66.933594 L 110.21875 42.816406 L 109.097656 41.824219 " fill-opacity="1" fill-rule="nonzero"/><path fill="#ceaf83" d="M 57.832031 64.117188 L 70.914062 56.808594 L 70.914062 59.78125 L 72.371094 58.746094 L 83.992188 63.472656 L 83.992188 59.273438 L 71.222656 54.082031 L 57.832031 64.117188 " fill-opacity="1" fill-rule="nonzero"/><path fill="#ceaf83" d="M 57.832031 71.105469 L 70.914062 63.796875 L 70.914062 66.769531 L 72.371094 65.734375 L 83.992188 70.457031 L 83.992188 66.261719 L 71.222656 61.070312 L 57.832031 71.105469 " fill-opacity="1" fill-rule="nonzero"/><path fill="#ceaf83" d="M 57.832031 78.089844 L 70.914062 70.78125 L 70.914062 73.757812 L 72.371094 72.71875 L 83.992188 77.445312 L 83.992188 73.25 L 71.222656 68.054688 L 57.832031 78.089844 " fill-opacity="1" fill-rule="nonzero"/><path fill="#ceaf83" d="M 57.832031 85.078125 L 70.914062 77.769531 L 70.914062 80.742188 L 72.371094 79.707031 L 83.992188 84.433594 L 83.992188 80.234375 L 71.222656 75.042969 L 57.832031 85.078125 " fill-opacity="1" fill-rule="nonzero"/><path fill="#ceaf83" d="M 57.832031 92.066406 L 70.914062 84.753906 L 70.914062 87.730469 L 72.371094 86.695312 L 83.992188 91.417969 L 83.992188 87.222656 L 71.222656 82.03125 L 57.832031 92.066406 " fill-opacity="1" fill-rule="nonzero"/><path fill="#ceaf83" d="M 57.832031 99.050781 L 61.105469 96.597656 L 60.195312 97.730469 Z M 57.832031 99.050781 " fill-opacity="1" fill-rule="nonzero"/><path fill="#ceaf83" d="M 83.992188 94.207031 L 83.992188 98.40625 L 83.59375 98.242188 L 72.371094 93.679688 L 70.910156 94.71875 L 70.910156 91.742188 L 63.964844 95.625 L 63.398438 95.546875 L 62.640625 95.445312 L 71.222656 89.015625 L 83.992188 94.207031 " fill-opacity="1" fill-rule="nonzero"/><path fill="#ceaf83" d="M 73.382812 96.878906 L 70.554688 96.503906 L 71.222656 96.003906 Z M 73.382812 96.878906 " fill-opacity="1" fill-rule="nonzero"/><g clip-path="url(#75b70d424f)"><path fill="#383535" d="M 76.902344 119.332031 C 76.660156 119.132812 67.546875 113.074219 63.085938 109.429688 L 40.109375 128.957031 L 61.382812 106.601562 L 63.085938 104.8125 L 65.980469 107.851562 L 76.902344 119.332031 " fill-opacity="1" fill-rule="nonzero"/></g><path fill="#ceaf83" d="M 103.390625 110.988281 L 94.308594 110.988281 L 94.308594 114.132812 L 90.707031 114.570312 L 89.933594 114.664062 L 89.371094 115.203125 L 82.671875 121.613281 L 63.085938 101.03125 L 46.785156 118.164062 L 63.089844 97.871094 L 95.566406 102.207031 L 95.566406 106.175781 L 97.277344 107.972656 L 97.277344 98.882812 L 102.621094 98.882812 L 102.621094 102.351562 L 109.507812 103.214844 L 118.164062 111.503906 L 103.390625 113.570312 L 103.390625 110.988281 " fill-opacity="1" fill-rule="nonzero"/><path fill="#383535" d="M 58.613281 120.976562 L 58.613281 121.984375 L 62.308594 121.984375 L 62.308594 117.285156 C 60.269531 117.285156 58.613281 118.9375 58.613281 120.976562 " fill-opacity="1" fill-rule="nonzero"/><path fill="#383535" d="M 63.765625 117.285156 L 63.765625 121.984375 L 67.460938 121.984375 L 67.460938 120.976562 C 67.460938 118.9375 65.804688 117.285156 63.765625 117.285156 " fill-opacity="1" fill-rule="nonzero"/><path fill="#383535" d="M 58.613281 127.132812 L 62.308594 127.132812 L 62.308594 123.4375 L 58.613281 123.4375 L 58.613281 127.132812 " fill-opacity="1" fill-rule="nonzero"/><path fill="#383535" d="M 63.765625 127.132812 L 67.460938 127.132812 L 67.460938 123.4375 L 63.765625 123.4375 L 63.765625 127.132812 " fill-opacity="1" fill-rule="nonzero"/><g clip-path="url(#290083cad2)"><path fill="#ceaf83" d="M 146.871094 138.066406 L 133.589844 126.78125 L 127.976562 122.007812 C 126.277344 123.398438 123.75 125.214844 121.515625 126.78125 C 118.925781 128.589844 116.722656 130.0625 116.613281 130.152344 L 119.824219 126.78125 L 125.597656 120.710938 L 126.636719 119.617188 L 127.976562 118.210938 L 129.378906 119.683594 L 146.871094 138.066406 " fill-opacity="1" fill-rule="nonzero"/></g><path fill="#383535" d="M 141.386719 129.191406 L 127.976562 115.101562 L 125.089844 118.132812 L 116.867188 126.78125 L 107.828125 136.277344 L 70.746094 136.277344 L 84.289062 123.3125 L 90.988281 116.898438 L 96.652344 116.210938 L 96.652344 113.332031 L 101.046875 113.332031 L 101.046875 120.808594 L 102.453125 119.332031 L 102.453125 116.066406 L 120.324219 113.570312 L 127.976562 112.5 L 141.386719 129.191406 " fill-opacity="1" fill-rule="nonzero"/><path fill="#ceaf83" d="M 131.65625 131.503906 L 131.65625 132.332031 L 128.617188 132.332031 L 128.617188 128.464844 C 130.296875 128.464844 131.65625 129.828125 131.65625 131.503906 " fill-opacity="1" fill-rule="nonzero"/><path fill="#ceaf83" d="M 127.421875 128.464844 L 127.421875 132.332031 L 124.382812 132.332031 L 124.382812 131.503906 C 124.382812 129.828125 125.742188 128.464844 127.421875 128.464844 " fill-opacity="1" fill-rule="nonzero"/><path fill="#ceaf83" d="M 131.65625 136.566406 L 128.617188 136.566406 L 128.617188 133.527344 L 131.65625 133.527344 L 131.65625 136.566406 " fill-opacity="1" fill-rule="nonzero"/><path fill="#ceaf83" d="M 127.421875 136.566406 L 124.382812 136.566406 L 124.382812 133.527344 L 127.421875 133.527344 L 127.421875 136.566406 " fill-opacity="1" fill-rule="nonzero"/><path fill="#383535" d="M 83.59375 98.242188 L 83.992188 98.40625 L 83.992188 98.296875 Z M 83.59375 98.242188 " fill-opacity="1" fill-rule="nonzero"/><g transform="matrix(1, 0, 0, 1, 41, 169)"><g clip-path="url(#f870ba1141)"><g fill="#383535" fill-opacity="1"><g transform="translate(0.753953, 7.792276)"><g><path d="M 3.171875 -5.765625 C 3.679688 -5.765625 4.125 -5.675781 4.5 -5.5 C 4.882812 -5.332031 5.175781 -5.09375 5.375 -4.78125 C 5.582031 -4.46875 5.6875 -4.097656 5.6875 -3.671875 C 5.6875 -3.242188 5.582031 -2.875 5.375 -2.5625 C 5.175781 -2.25 4.882812 -2.007812 4.5 -1.84375 C 4.125 -1.675781 3.679688 -1.59375 3.171875 -1.59375 L 2.015625 -1.59375 L 2.015625 0 L 0.6875 0 L 0.6875 -5.765625 Z M 3.109375 -2.671875 C 3.503906 -2.671875 3.804688 -2.753906 4.015625 -2.921875 C 4.222656 -3.097656 4.328125 -3.347656 4.328125 -3.671875 C 4.328125 -3.992188 4.222656 -4.238281 4.015625 -4.40625 C 3.804688 -4.582031 3.503906 -4.671875 3.109375 -4.671875 L 2.015625 -4.671875 L 2.015625 -2.671875 Z M 3.109375 -2.671875 "/></g></g></g><g fill="#383535" fill-opacity="1"><g transform="translate(7.40585, 7.792276)"><g><path d="M 4.359375 0 L 3.25 -1.609375 L 2.015625 -1.609375 L 2.015625 0 L 0.6875 0 L 0.6875 -5.765625 L 3.171875 -5.765625 C 3.679688 -5.765625 4.125 -5.675781 4.5 -5.5 C 4.882812 -5.332031 5.175781 -5.09375 5.375 -4.78125 C 5.582031 -4.46875 5.6875 -4.097656 5.6875 -3.671875 C 5.6875 -3.242188 5.582031 -2.875 5.375 -2.5625 C 5.164062 -2.25 4.875 -2.015625 4.5 -1.859375 L 5.78125 0 Z M 4.328125 -3.671875 C 4.328125 -3.992188 4.222656 -4.238281 4.015625 -4.40625 C 3.804688 -4.582031 3.503906 -4.671875 3.109375 -4.671875 L 2.015625 -4.671875 L 2.015625 -2.671875 L 3.109375 -2.671875 C 3.503906 -2.671875 3.804688 -2.753906 4.015625 -2.921875 C 4.222656 -3.097656 4.328125 -3.347656 4.328125 -3.671875 Z M 4.328125 -3.671875 "/></g></g></g><g fill="#383535" fill-opacity="1"><g transform="translate(14.082412, 7.792276)"><g><path d="M 5.140625 -1.078125 L 5.140625 0 L 0.6875 0 L 0.6875 -5.765625 L 5.046875 -5.765625 L 5.046875 -4.6875 L 2.015625 -4.6875 L 2.015625 -3.4375 L 4.6875 -3.4375 L 4.6875 -2.40625 L 2.015625 -2.40625 L 2.015625 -1.078125 Z M 5.140625 -1.078125 "/></g></g></g><g fill="#383535" fill-opacity="1"><g transform="translate(20.232797, 7.792276)"><g><path d="M 5.921875 0 L 5.921875 -3.453125 L 4.21875 -0.609375 L 3.625 -0.609375 L 1.9375 -3.390625 L 1.9375 0 L 0.6875 0 L 0.6875 -5.765625 L 1.78125 -5.765625 L 3.9375 -2.1875 L 6.0625 -5.765625 L 7.15625 -5.765625 L 7.1875 0 Z M 5.921875 0 "/></g></g></g><g fill="#383535" fill-opacity="1"><g transform="translate(28.718092, 7.792276)"><g><path d="M 0.6875 -5.765625 L 2.015625 -5.765625 L 2.015625 0 L 0.6875 0 Z M 0.6875 -5.765625 "/></g></g></g><g fill="#383535" fill-opacity="1"><g transform="translate(32.0485, 7.792276)"><g><path d="M 3.25 0.09375 C 2.425781 0.09375 1.785156 -0.128906 1.328125 -0.578125 C 0.867188 -1.035156 0.640625 -1.6875 0.640625 -2.53125 L 0.640625 -5.765625 L 1.96875 -5.765625 L 1.96875 -2.578125 C 1.96875 -1.546875 2.394531 -1.03125 3.25 -1.03125 C 3.664062 -1.03125 3.984375 -1.15625 4.203125 -1.40625 C 4.421875 -1.65625 4.53125 -2.046875 4.53125 -2.578125 L 4.53125 -5.765625 L 5.859375 -5.765625 L 5.859375 -2.53125 C 5.859375 -1.6875 5.628906 -1.035156 5.171875 -0.578125 C 4.710938 -0.128906 4.070312 0.09375 3.25 0.09375 Z M 3.25 0.09375 "/></g></g></g><g fill="#383535" fill-opacity="1"><g transform="translate(39.160799, 7.792276)"><g><path d="M 5.921875 0 L 5.921875 -3.453125 L 4.21875 -0.609375 L 3.625 -0.609375 L 1.9375 -3.390625 L 1.9375 0 L 0.6875 0 L 0.6875 -5.765625 L 1.78125 -5.765625 L 3.9375 -2.1875 L 6.0625 -5.765625 L 7.15625 -5.765625 L 7.1875 0 Z M 5.921875 0 "/></g></g></g><g fill="#383535" fill-opacity="1"><g transform="translate(47.646094, 7.792276)"><g/></g></g><g fill="#383535" fill-opacity="1"><g transform="translate(50.60653, 7.792276)"><g><path d="M 2.578125 0.09375 C 2.117188 0.09375 1.675781 0.0351562 1.25 -0.078125 C 0.832031 -0.203125 0.492188 -0.363281 0.234375 -0.5625 L 0.6875 -1.578125 C 0.925781 -1.390625 1.21875 -1.238281 1.5625 -1.125 C 1.90625 -1.019531 2.242188 -0.96875 2.578125 -0.96875 C 2.960938 -0.96875 3.242188 -1.023438 3.421875 -1.140625 C 3.609375 -1.253906 3.703125 -1.40625 3.703125 -1.59375 C 3.703125 -1.726562 3.644531 -1.835938 3.53125 -1.921875 C 3.425781 -2.015625 3.289062 -2.085938 3.125 -2.140625 C 2.957031 -2.203125 2.734375 -2.265625 2.453125 -2.328125 C 2.003906 -2.429688 1.640625 -2.535156 1.359375 -2.640625 C 1.085938 -2.742188 0.847656 -2.910156 0.640625 -3.140625 C 0.441406 -3.367188 0.34375 -3.675781 0.34375 -4.0625 C 0.34375 -4.394531 0.429688 -4.695312 0.609375 -4.96875 C 0.796875 -5.25 1.070312 -5.46875 1.4375 -5.625 C 1.800781 -5.78125 2.25 -5.859375 2.78125 -5.859375 C 3.144531 -5.859375 3.5 -5.8125 3.84375 -5.71875 C 4.195312 -5.632812 4.507812 -5.515625 4.78125 -5.359375 L 4.359375 -4.34375 C 3.828125 -4.644531 3.296875 -4.796875 2.765625 -4.796875 C 2.390625 -4.796875 2.113281 -4.734375 1.9375 -4.609375 C 1.757812 -4.492188 1.671875 -4.335938 1.671875 -4.140625 C 1.671875 -3.941406 1.773438 -3.789062 1.984375 -3.6875 C 2.191406 -3.59375 2.503906 -3.5 2.921875 -3.40625 C 3.359375 -3.300781 3.71875 -3.195312 4 -3.09375 C 4.28125 -2.988281 4.519531 -2.820312 4.71875 -2.59375 C 4.914062 -2.375 5.015625 -2.070312 5.015625 -1.6875 C 5.015625 -1.351562 4.921875 -1.050781 4.734375 -0.78125 C 4.554688 -0.507812 4.285156 -0.296875 3.921875 -0.140625 C 3.554688 0.015625 3.109375 0.09375 2.578125 0.09375 Z M 2.578125 0.09375 "/></g></g></g><g fill="#383535" fill-opacity="1"><g transform="translate(56.485605, 7.792276)"><g><path d="M 1.875 -4.671875 L 0.03125 -4.671875 L 0.03125 -5.765625 L 5.0625 -5.765625 L 5.0625 -4.671875 L 3.21875 -4.671875 L 3.21875 0 L 1.875 0 Z M 1.875 -4.671875 "/></g></g></g><g fill="#383535" fill-opacity="1"><g transform="translate(62.200253, 7.792276)"><g><path d="M 4.484375 -1.234375 L 1.796875 -1.234375 L 1.296875 0 L -0.078125 0 L 2.5 -5.765625 L 3.8125 -5.765625 L 6.390625 0 L 4.984375 0 Z M 4.0625 -2.25 L 3.140625 -4.453125 L 2.234375 -2.25 Z M 4.0625 -2.25 "/></g></g></g><g fill="#383535" fill-opacity="1"><g transform="translate(69.131682, 7.792276)"><g><path d="M 5.96875 -5.765625 L 5.96875 0 L 4.875 0 L 2 -3.5 L 2 0 L 0.6875 0 L 0.6875 -5.765625 L 1.78125 -5.765625 L 4.65625 -2.265625 L 4.65625 -5.765625 Z M 5.96875 -5.765625 "/></g></g></g><g fill="#383535" fill-opacity="1"><g transform="translate(76.408418, 7.792276)"><g><path d="M 0.6875 -5.765625 L 3.296875 -5.765625 C 3.921875 -5.765625 4.472656 -5.644531 4.953125 -5.40625 C 5.441406 -5.164062 5.816406 -4.828125 6.078125 -4.390625 C 6.347656 -3.960938 6.484375 -3.457031 6.484375 -2.875 C 6.484375 -2.300781 6.347656 -1.796875 6.078125 -1.359375 C 5.816406 -0.929688 5.441406 -0.597656 4.953125 -0.359375 C 4.472656 -0.117188 3.921875 0 3.296875 0 L 0.6875 0 Z M 3.234375 -1.09375 C 3.804688 -1.09375 4.265625 -1.253906 4.609375 -1.578125 C 4.953125 -1.898438 5.125 -2.332031 5.125 -2.875 C 5.125 -3.425781 4.953125 -3.863281 4.609375 -4.1875 C 4.265625 -4.507812 3.804688 -4.671875 3.234375 -4.671875 L 2.015625 -4.671875 L 2.015625 -1.09375 Z M 3.234375 -1.09375 "/></g></g></g><g fill="#383535" fill-opacity="1"><g transform="translate(83.833136, 7.792276)"><g><path d="M 4.484375 -1.234375 L 1.796875 -1.234375 L 1.296875 0 L -0.078125 0 L 2.5 -5.765625 L 3.8125 -5.765625 L 6.390625 0 L 4.984375 0 Z M 4.0625 -2.25 L 3.140625 -4.453125 L 2.234375 -2.25 Z M 4.0625 -2.25 "/></g></g></g><g fill="#383535" fill-opacity="1"><g transform="translate(90.764565, 7.792276)"><g><path d="M 4.359375 0 L 3.25 -1.609375 L 2.015625 -1.609375 L 2.015625 0 L 0.6875 0 L 0.6875 -5.765625 L 3.171875 -5.765625 C 3.679688 -5.765625 4.125 -5.675781 4.5 -5.5 C 4.882812 -5.332031 5.175781 -5.09375 5.375 -4.78125 C 5.582031 -4.46875 5.6875 -4.097656 5.6875 -3.671875 C 5.6875 -3.242188 5.582031 -2.875 5.375 -2.5625 C 5.164062 -2.25 4.875 -2.015625 4.5 -1.859375 L 5.78125 0 Z M 4.328125 -3.671875 C 4.328125 -3.992188 4.222656 -4.238281 4.015625 -4.40625 C 3.804688 -4.582031 3.503906 -4.671875 3.109375 -4.671875 L 2.015625 -4.671875 L 2.015625 -2.671875 L 3.109375 -2.671875 C 3.503906 -2.671875 3.804688 -2.753906 4.015625 -2.921875 C 4.222656 -3.097656 4.328125 -3.347656 4.328125 -3.671875 Z M 4.328125 -3.671875 "/></g></g></g><g fill="#383535" fill-opacity="1"><g transform="translate(97.441127, 7.792276)"><g><path d="M 0.6875 -5.765625 L 3.296875 -5.765625 C 3.921875 -5.765625 4.472656 -5.644531 4.953125 -5.40625 C 5.441406 -5.164062 5.816406 -4.828125 6.078125 -4.390625 C 6.347656 -3.960938 6.484375 -3.457031 6.484375 -2.875 C 6.484375 -2.300781 6.347656 -1.796875 6.078125 -1.359375 C 5.816406 -0.929688 5.441406 -0.597656 4.953125 -0.359375 C 4.472656 -0.117188 3.921875 0 3.296875 0 L 0.6875 0 Z M 3.234375 -1.09375 C 3.804688 -1.09375 4.265625 -1.253906 4.609375 -1.578125 C 4.953125 -1.898438 5.125 -2.332031 5.125 -2.875 C 5.125 -3.425781 4.953125 -3.863281 4.609375 -4.1875 C 4.265625 -4.507812 3.804688 -4.671875 3.234375 -4.671875 L 2.015625 -4.671875 L 2.015625 -1.09375 Z M 3.234375 -1.09375 "/></g></g></g></g></g><g fill="#00265a" fill-opacity="1"><g transform="translate(2.405776, 162.192785)"><g><path d="M 9.234375 0.21875 C 7.671875 0.21875 6.257812 -0.117188 5 -0.796875 C 3.738281 -1.484375 2.75 -2.425781 2.03125 -3.625 C 1.320312 -4.832031 0.96875 -6.179688 0.96875 -7.671875 C 0.96875 -9.171875 1.320312 -10.519531 2.03125 -11.71875 C 2.75 -12.925781 3.738281 -13.867188 5 -14.546875 C 6.257812 -15.234375 7.671875 -15.578125 9.234375 -15.578125 C 10.796875 -15.578125 12.207031 -15.234375 13.46875 -14.546875 C 14.726562 -13.867188 15.710938 -12.929688 16.421875 -11.734375 C 17.140625 -10.535156 17.5 -9.179688 17.5 -7.671875 C 17.5 -6.171875 17.140625 -4.820312 16.421875 -3.625 C 15.710938 -2.425781 14.726562 -1.484375 13.46875 -0.796875 C 12.207031 -0.117188 10.796875 0.21875 9.234375 0.21875 Z M 9.234375 -2.28125 C 10.253906 -2.28125 11.175781 -2.507812 12 -2.96875 C 12.820312 -3.425781 13.460938 -4.066406 13.921875 -4.890625 C 14.390625 -5.722656 14.625 -6.648438 14.625 -7.671875 C 14.625 -8.703125 14.390625 -9.628906 13.921875 -10.453125 C 13.460938 -11.273438 12.820312 -11.914062 12 -12.375 C 11.175781 -12.84375 10.253906 -13.078125 9.234375 -13.078125 C 8.210938 -13.078125 7.289062 -12.84375 6.46875 -12.375 C 5.65625 -11.914062 5.015625 -11.273438 4.546875 -10.453125 C 4.078125 -9.628906 3.84375 -8.703125 3.84375 -7.671875 C 3.84375 -6.648438 4.078125 -5.722656 4.546875 -4.890625 C 5.015625 -4.066406 5.65625 -3.425781 6.46875 -2.96875 C 7.289062 -2.507812 8.210938 -2.28125 9.234375 -2.28125 Z M 9.234375 -2.28125 "/></g></g></g><g fill="#00265a" fill-opacity="1"><g transform="translate(20.877212, 162.192785)"><g><path d="M 12.546875 -7.859375 L 15.25 -7.859375 L 15.25 -1.734375 C 14.457031 -1.109375 13.535156 -0.625 12.484375 -0.28125 C 11.429688 0.0507812 10.347656 0.21875 9.234375 0.21875 C 7.671875 0.21875 6.257812 -0.117188 5 -0.796875 C 3.738281 -1.484375 2.75 -2.425781 2.03125 -3.625 C 1.320312 -4.820312 0.96875 -6.171875 0.96875 -7.671875 C 0.96875 -9.179688 1.320312 -10.535156 2.03125 -11.734375 C 2.75 -12.929688 3.738281 -13.867188 5 -14.546875 C 6.269531 -15.234375 7.695312 -15.578125 9.28125 -15.578125 C 10.5625 -15.578125 11.726562 -15.363281 12.78125 -14.9375 C 13.84375 -14.507812 14.726562 -13.890625 15.4375 -13.078125 L 13.640625 -11.3125 C 12.472656 -12.488281 11.0625 -13.078125 9.40625 -13.078125 C 8.320312 -13.078125 7.359375 -12.847656 6.515625 -12.390625 C 5.679688 -11.941406 5.023438 -11.304688 4.546875 -10.484375 C 4.078125 -9.660156 3.84375 -8.722656 3.84375 -7.671875 C 3.84375 -6.648438 4.078125 -5.726562 4.546875 -4.90625 C 5.023438 -4.09375 5.679688 -3.453125 6.515625 -2.984375 C 7.359375 -2.515625 8.316406 -2.28125 9.390625 -2.28125 C 10.585938 -2.28125 11.640625 -2.546875 12.546875 -3.078125 Z M 12.546875 -7.859375 "/></g></g></g><g fill="#00265a" fill-opacity="1"><g transform="translate(37.81302, 162.192785)"><g><path d="M 2.0625 -15.359375 L 4.90625 -15.359375 L 4.90625 -2.40625 L 12.9375 -2.40625 L 12.9375 0 L 2.0625 0 Z M 2.0625 -15.359375 "/></g></g></g><g fill="#00265a" fill-opacity="1"><g transform="translate(50.953629, 162.192785)"><g><path d="M 12.015625 -3.546875 L 4.34375 -3.546875 L 2.828125 0 L -0.109375 0 L 6.796875 -15.359375 L 9.609375 -15.359375 L 16.546875 0 L 13.5625 0 Z M 11.078125 -5.796875 L 8.1875 -12.5 L 5.3125 -5.796875 Z M 11.078125 -5.796875 "/></g></g></g><g fill="#00265a" fill-opacity="1"><g transform="translate(67.384874, 162.192785)"><g><path d="M 6.828125 0.21875 C 5.640625 0.21875 4.492188 0.0507812 3.390625 -0.28125 C 2.285156 -0.625 1.410156 -1.070312 0.765625 -1.625 L 1.75 -3.84375 C 2.382812 -3.34375 3.15625 -2.9375 4.0625 -2.625 C 4.976562 -2.3125 5.898438 -2.15625 6.828125 -2.15625 C 7.960938 -2.15625 8.8125 -2.335938 9.375 -2.703125 C 9.9375 -3.066406 10.21875 -3.546875 10.21875 -4.140625 C 10.21875 -4.578125 10.0625 -4.9375 9.75 -5.21875 C 9.4375 -5.507812 9.035156 -5.734375 8.546875 -5.890625 C 8.066406 -6.054688 7.410156 -6.242188 6.578125 -6.453125 C 5.410156 -6.722656 4.460938 -7 3.734375 -7.28125 C 3.015625 -7.5625 2.394531 -8 1.875 -8.59375 C 1.351562 -9.1875 1.09375 -9.984375 1.09375 -10.984375 C 1.09375 -11.835938 1.320312 -12.609375 1.78125 -13.296875 C 2.25 -13.992188 2.945312 -14.546875 3.875 -14.953125 C 4.800781 -15.367188 5.9375 -15.578125 7.28125 -15.578125 C 8.21875 -15.578125 9.140625 -15.457031 10.046875 -15.21875 C 10.953125 -14.988281 11.734375 -14.65625 12.390625 -14.21875 L 11.5 -12 C 10.820312 -12.394531 10.117188 -12.691406 9.390625 -12.890625 C 8.660156 -13.097656 7.953125 -13.203125 7.265625 -13.203125 C 6.140625 -13.203125 5.300781 -13.007812 4.75 -12.625 C 4.195312 -12.25 3.921875 -11.75 3.921875 -11.125 C 3.921875 -10.6875 4.078125 -10.328125 4.390625 -10.046875 C 4.710938 -9.765625 5.113281 -9.539062 5.59375 -9.375 C 6.070312 -9.21875 6.726562 -9.039062 7.5625 -8.84375 C 8.707031 -8.582031 9.644531 -8.304688 10.375 -8.015625 C 11.101562 -7.734375 11.726562 -7.296875 12.25 -6.703125 C 12.769531 -6.117188 13.03125 -5.332031 13.03125 -4.34375 C 13.03125 -3.5 12.800781 -2.734375 12.34375 -2.046875 C 11.882812 -1.359375 11.1875 -0.804688 10.25 -0.390625 C 9.3125 0.015625 8.171875 0.21875 6.828125 0.21875 Z M 6.828125 0.21875 "/></g></g></g><g fill="#00265a" fill-opacity="1"><g transform="translate(81.183605, 162.192785)"><g><path d="M 2.0625 -15.359375 L 4.90625 -15.359375 L 4.90625 0 L 2.0625 0 Z M 2.0625 -15.359375 "/></g></g></g><g fill="#ffc20e" fill-opacity="1"><g transform="translate(88.192628, 162.192785)"><g><path d="M 6.828125 0.21875 C 5.640625 0.21875 4.492188 0.0507812 3.390625 -0.28125 C 2.285156 -0.625 1.410156 -1.070312 0.765625 -1.625 L 1.75 -3.84375 C 2.382812 -3.34375 3.15625 -2.9375 4.0625 -2.625 C 4.976562 -2.3125 5.898438 -2.15625 6.828125 -2.15625 C 7.960938 -2.15625 8.8125 -2.335938 9.375 -2.703125 C 9.9375 -3.066406 10.21875 -3.546875 10.21875 -4.140625 C 10.21875 -4.578125 10.0625 -4.9375 9.75 -5.21875 C 9.4375 -5.507812 9.035156 -5.734375 8.546875 -5.890625 C 8.066406 -6.054688 7.410156 -6.242188 6.578125 -6.453125 C 5.410156 -6.722656 4.460938 -7 3.734375 -7.28125 C 3.015625 -7.5625 2.394531 -8 1.875 -8.59375 C 1.351562 -9.1875 1.09375 -9.984375 1.09375 -10.984375 C 1.09375 -11.835938 1.320312 -12.609375 1.78125 -13.296875 C 2.25 -13.992188 2.945312 -14.546875 3.875 -14.953125 C 4.800781 -15.367188 5.9375 -15.578125 7.28125 -15.578125 C 8.21875 -15.578125 9.140625 -15.457031 10.046875 -15.21875 C 10.953125 -14.988281 11.734375 -14.65625 12.390625 -14.21875 L 11.5 -12 C 10.820312 -12.394531 10.117188 -12.691406 9.390625 -12.890625 C 8.660156 -13.097656 7.953125 -13.203125 7.265625 -13.203125 C 6.140625 -13.203125 5.300781 -13.007812 4.75 -12.625 C 4.195312 -12.25 3.921875 -11.75 3.921875 -11.125 C 3.921875 -10.6875 4.078125 -10.328125 4.390625 -10.046875 C 4.710938 -9.765625 5.113281 -9.539062 5.59375 -9.375 C 6.070312 -9.21875 6.726562 -9.039062 7.5625 -8.84375 C 8.707031 -8.582031 9.644531 -8.304688 10.375 -8.015625 C 11.101562 -7.734375 11.726562 -7.296875 12.25 -6.703125 C 12.769531 -6.117188 13.03125 -5.332031 13.03125 -4.34375 C 13.03125 -3.5 12.800781 -2.734375 12.34375 -2.046875 C 11.882812 -1.359375 11.1875 -0.804688 10.25 -0.390625 C 9.3125 0.015625 8.171875 0.21875 6.828125 0.21875 Z M 6.828125 0.21875 "/></g></g></g><g fill="#ffc20e" fill-opacity="1"><g transform="translate(101.99136, 162.192785)"><g><path d="M 5.171875 -12.9375 L 0.09375 -12.9375 L 0.09375 -15.359375 L 13.125 -15.359375 L 13.125 -12.9375 L 8.03125 -12.9375 L 8.03125 0 L 5.171875 0 Z M 5.171875 -12.9375 "/></g></g></g><g fill="#ffc20e" fill-opacity="1"><g transform="translate(115.19778, 162.192785)"><g><path d="M 12.015625 -3.546875 L 4.34375 -3.546875 L 2.828125 0 L -0.109375 0 L 6.796875 -15.359375 L 9.609375 -15.359375 L 16.546875 0 L 13.5625 0 Z M 11.078125 -5.796875 L 8.1875 -12.5 L 5.3125 -5.796875 Z M 11.078125 -5.796875 "/></g></g></g><g fill="#ffc20e" fill-opacity="1"><g transform="translate(131.629025, 162.192785)"><g><path d="M 15.703125 -15.359375 L 15.703125 0 L 13.359375 0 L 4.890625 -10.390625 L 4.890625 0 L 2.0625 0 L 2.0625 -15.359375 L 4.40625 -15.359375 L 12.875 -4.953125 L 12.875 -15.359375 Z M 15.703125 -15.359375 "/></g></g></g><g fill="#383535" fill-opacity="1"><g transform="translate(149.4005, 162.192785)"><g><path d="M 2.671875 0.15625 C 2.179688 0.15625 1.757812 -0.015625 1.40625 -0.359375 C 1.050781 -0.703125 0.875 -1.140625 0.875 -1.671875 C 0.875 -2.210938 1.046875 -2.648438 1.390625 -2.984375 C 1.734375 -3.316406 2.160156 -3.484375 2.671875 -3.484375 C 3.179688 -3.484375 3.609375 -3.316406 3.953125 -2.984375 C 4.296875 -2.648438 4.46875 -2.210938 4.46875 -1.671875 C 4.46875 -1.140625 4.289062 -0.703125 3.9375 -0.359375 C 3.59375 -0.015625 3.171875 0.15625 2.671875 0.15625 Z M 2.671875 0.15625 "/></g></g></g><g fill="#383535" fill-opacity="1"><g transform="translate(154.753264, 162.192785)"><g><path d="M 12.109375 0 L 8.96875 -4.5 C 8.84375 -4.476562 8.644531 -4.46875 8.375 -4.46875 L 4.90625 -4.46875 L 4.90625 0 L 2.0625 0 L 2.0625 -15.359375 L 8.375 -15.359375 C 9.707031 -15.359375 10.867188 -15.140625 11.859375 -14.703125 C 12.847656 -14.265625 13.601562 -13.632812 14.125 -12.8125 C 14.65625 -11.988281 14.921875 -11.015625 14.921875 -9.890625 C 14.921875 -8.734375 14.640625 -7.738281 14.078125 -6.90625 C 13.515625 -6.070312 12.707031 -5.453125 11.65625 -5.046875 L 15.1875 0 Z M 12.046875 -9.890625 C 12.046875 -10.867188 11.722656 -11.617188 11.078125 -12.140625 C 10.429688 -12.671875 9.488281 -12.9375 8.25 -12.9375 L 4.90625 -12.9375 L 4.90625 -6.828125 L 8.25 -6.828125 C 9.488281 -6.828125 10.429688 -7.09375 11.078125 -7.625 C 11.722656 -8.15625 12.046875 -8.910156 12.046875 -9.890625 Z M 12.046875 -9.890625 "/></g></g></g><g fill="#383535" fill-opacity="1"><g transform="translate(170.789631, 162.192785)"><g><path d="M 6.828125 0.21875 C 5.640625 0.21875 4.492188 0.0507812 3.390625 -0.28125 C 2.285156 -0.625 1.410156 -1.070312 0.765625 -1.625 L 1.75 -3.84375 C 2.382812 -3.34375 3.15625 -2.9375 4.0625 -2.625 C 4.976562 -2.3125 5.898438 -2.15625 6.828125 -2.15625 C 7.960938 -2.15625 8.8125 -2.335938 9.375 -2.703125 C 9.9375 -3.066406 10.21875 -3.546875 10.21875 -4.140625 C 10.21875 -4.578125 10.0625 -4.9375 9.75 -5.21875 C 9.4375 -5.507812 9.035156 -5.734375 8.546875 -5.890625 C 8.066406 -6.054688 7.410156 -6.242188 6.578125 -6.453125 C 5.410156 -6.722656 4.460938 -7 3.734375 -7.28125 C 3.015625 -7.5625 2.394531 -8 1.875 -8.59375 C 1.351562 -9.1875 1.09375 -9.984375 1.09375 -10.984375 C 1.09375 -11.835938 1.320312 -12.609375 1.78125 -13.296875 C 2.25 -13.992188 2.945312 -14.546875 3.875 -14.953125 C 4.800781 -15.367188 5.9375 -15.578125 7.28125 -15.578125 C 8.21875 -15.578125 9.140625 -15.457031 10.046875 -15.21875 C 10.953125 -14.988281 11.734375 -14.65625 12.390625 -14.21875 L 11.5 -12 C 10.820312 -12.394531 10.117188 -12.691406 9.390625 -12.890625 C 8.660156 -13.097656 7.953125 -13.203125 7.265625 -13.203125 C 6.140625 -13.203125 5.300781 -13.007812 4.75 -12.625 C 4.195312 -12.25 3.921875 -11.75 3.921875 -11.125 C 3.921875 -10.6875 4.078125 -10.328125 4.390625 -10.046875 C 4.710938 -9.765625 5.113281 -9.539062 5.59375 -9.375 C 6.070312 -9.21875 6.726562 -9.039062 7.5625 -8.84375 C 8.707031 -8.582031 9.644531 -8.304688 10.375 -8.015625 C 11.101562 -7.734375 11.726562 -7.296875 12.25 -6.703125 C 12.769531 -6.117188 13.03125 -5.332031 13.03125 -4.34375 C 13.03125 -3.5 12.800781 -2.734375 12.34375 -2.046875 C 11.882812 -1.359375 11.1875 -0.804688 10.25 -0.390625 C 9.3125 0.015625 8.171875 0.21875 6.828125 0.21875 Z M 6.828125 0.21875 "/></g></g></g></svg>